<svg width="32" height="32" viewBox="0 0 32 32" fill="none" xmlns="http://www.w3.org/2000/svg">
<path d="M2.40957 15.1937H0.910654V14.2483H2.40957C2.64121 14.2483 2.82975 14.2106 2.9752 14.1352C3.12064 14.0571 3.22703 13.9493 3.29437 13.812C3.36171 13.6746 3.39538 13.5197 3.39538 13.3474C3.39538 13.1723 3.36171 13.0093 3.29437 12.8585C3.22703 12.7077 3.12064 12.5865 2.9752 12.4949C2.82975 12.4033 2.64121 12.3575 2.40957 12.3575H1.33083V17.2906H0.118774V11.4081H2.40957C2.87015 11.4081 3.26474 11.4916 3.59335 11.6586C3.92464 11.8229 4.17783 12.0505 4.3529 12.3413C4.52798 12.6322 4.61552 12.9649 4.61552 13.3393C4.61552 13.7191 4.52798 14.0477 4.3529 14.3251C4.17783 14.6025 3.92464 14.8166 3.59335 14.9675C3.26474 15.1183 2.87015 15.1937 2.40957 15.1937Z" fill="#141414"/>
<path d="M5.1367 15.1493V15.0644C5.1367 14.7439 5.18249 14.449 5.27407 14.1796C5.36565 13.9076 5.49897 13.6719 5.67405 13.4726C5.84912 13.2733 6.0646 13.1184 6.32048 13.008C6.57636 12.8949 6.86995 12.8383 7.20124 12.8383C7.53254 12.8383 7.82748 12.8949 8.08605 13.008C8.34462 13.1184 8.56145 13.2733 8.73652 13.4726C8.91429 13.6719 9.04896 13.9076 9.14054 14.1796C9.23212 14.449 9.27791 14.7439 9.27791 15.0644V15.1493C9.27791 15.4671 9.23212 15.762 9.14054 16.0341C9.04896 16.3034 8.91429 16.5391 8.73652 16.7411C8.56145 16.9404 8.34597 17.0953 8.09009 17.2057C7.83421 17.3162 7.54062 17.3714 7.20933 17.3714C6.87803 17.3714 6.58309 17.3162 6.32452 17.2057C6.06864 17.0953 5.85182 16.9404 5.67405 16.7411C5.49897 16.5391 5.36565 16.3034 5.27407 16.0341C5.18249 15.762 5.1367 15.4671 5.1367 15.1493ZM6.30028 15.0644V15.1493C6.30028 15.3324 6.31644 15.5035 6.34876 15.6624C6.38108 15.8213 6.43226 15.9614 6.50229 16.0826C6.57501 16.2011 6.66929 16.294 6.7851 16.3613C6.90092 16.4287 7.04233 16.4624 7.20933 16.4624C7.37093 16.4624 7.50965 16.4287 7.62547 16.3613C7.74128 16.294 7.83421 16.2011 7.90424 16.0826C7.97427 15.9614 8.02545 15.8213 8.05777 15.6624C8.09278 15.5035 8.11029 15.3324 8.11029 15.1493V15.0644C8.11029 14.8867 8.09278 14.7197 8.05777 14.5635C8.02545 14.4045 7.97292 14.2645 7.9002 14.1433C7.83017 14.0194 7.73724 13.9224 7.62143 13.8524C7.50561 13.7824 7.36555 13.7473 7.20124 13.7473C7.03694 13.7473 6.89688 13.7824 6.78106 13.8524C6.66794 13.9224 6.57501 14.0194 6.50229 14.1433C6.43226 14.2645 6.38108 14.4045 6.34876 14.5635C6.31644 14.7197 6.30028 14.8867 6.30028 15.0644Z" fill="#141414"/>
<path d="M11.1566 13.8726V17.2906H9.99302V12.9191H11.0879L11.1566 13.8726ZM12.4737 12.8908L12.4535 13.9695C12.3969 13.9615 12.3283 13.9547 12.2475 13.9493C12.1693 13.9413 12.098 13.9372 12.0333 13.9372C11.869 13.9372 11.7263 13.9588 11.6051 14.0019C11.4866 14.0423 11.3869 14.1029 11.3061 14.1837C11.228 14.2645 11.1687 14.3628 11.1283 14.4786C11.0906 14.5944 11.0691 14.7264 11.0637 14.8746L10.8293 14.8018C10.8293 14.519 10.8576 14.2591 10.9142 14.0221C10.9708 13.7824 11.0529 13.5736 11.1606 13.3958C11.2711 13.2181 11.4057 13.0807 11.5647 12.9837C11.7236 12.8868 11.9054 12.8383 12.1101 12.8383C12.1747 12.8383 12.2407 12.8437 12.3081 12.8545C12.3754 12.8625 12.4306 12.8747 12.4737 12.8908Z" fill="#141414"/>
<path d="M15.3665 12.9191V13.7433H12.8212V12.9191H15.3665ZM13.4514 11.8404H14.615V15.9735C14.615 16.1001 14.6312 16.197 14.6635 16.2644C14.6985 16.3317 14.7497 16.3789 14.817 16.4058C14.8844 16.43 14.9692 16.4421 15.0716 16.4421C15.1443 16.4421 15.2089 16.4395 15.2655 16.4341C15.3247 16.426 15.3746 16.4179 15.415 16.4098L15.419 17.2664C15.3194 17.2987 15.2116 17.3243 15.0958 17.3431C14.98 17.362 14.852 17.3714 14.712 17.3714C14.4561 17.3714 14.2325 17.3296 14.0413 17.2461C13.8528 17.16 13.7073 17.0226 13.605 16.834C13.5026 16.6455 13.4514 16.3977 13.4514 16.0907V11.8404Z" fill="#141414"/>
<path d="M17.5118 17.2906H16.3402V12.5312C16.3402 12.1999 16.4048 11.9212 16.5341 11.6949C16.6661 11.466 16.8506 11.2936 17.0876 11.1778C17.3273 11.0593 17.6115 11 17.9401 11C18.0478 11 18.1515 11.0081 18.2512 11.0242C18.3508 11.0377 18.4478 11.0552 18.5421 11.0768L18.53 11.9535C18.4788 11.94 18.4249 11.9306 18.3684 11.9252C18.3118 11.9198 18.2458 11.9171 18.1704 11.9171C18.0303 11.9171 17.9105 11.9414 17.8108 11.9898C17.7138 12.0356 17.6398 12.1043 17.5886 12.1959C17.5374 12.2875 17.5118 12.3993 17.5118 12.5312V17.2906ZM18.9461 12.4949L18.3845 13.7433H15.6897V12.9191L18.9461 12.4949Z" fill="#141414"/>
<path d="M18.8087 15.1493V15.0644C18.8087 14.7439 18.8545 14.449 18.9461 14.1796C19.0377 13.9076 19.171 13.6719 19.3461 13.4726C19.5212 13.2733 19.7366 13.1184 19.9925 13.008C20.2484 12.8949 20.542 12.8383 20.8733 12.8383C21.2046 12.8383 21.4995 12.8949 21.7581 13.008C22.0167 13.1184 22.2335 13.2733 22.4086 13.4726C22.5863 13.6719 22.721 13.9076 22.8126 14.1796C22.9042 14.449 22.9499 14.7439 22.9499 15.0644V15.1493C22.9499 15.4671 22.9042 15.762 22.8126 16.0341C22.721 16.3034 22.5863 16.5391 22.4086 16.7411C22.2335 16.9404 22.018 17.0953 21.7621 17.2057C21.5062 17.3162 21.2127 17.3714 20.8814 17.3714C20.5501 17.3714 20.2551 17.3162 19.9966 17.2057C19.7407 17.0953 19.5239 16.9404 19.3461 16.7411C19.171 16.5391 19.0377 16.3034 18.9461 16.0341C18.8545 15.762 18.8087 15.4671 18.8087 15.1493ZM19.9723 15.0644V15.1493C19.9723 15.3324 19.9885 15.5035 20.0208 15.6624C20.0531 15.8213 20.1043 15.9614 20.1743 16.0826C20.2471 16.2011 20.3413 16.294 20.4571 16.3613C20.573 16.4287 20.7144 16.4624 20.8814 16.4624C21.043 16.4624 21.1817 16.4287 21.2975 16.3613C21.4133 16.294 21.5062 16.2011 21.5763 16.0826C21.6463 15.9614 21.6975 15.8213 21.7298 15.6624C21.7648 15.5035 21.7823 15.3324 21.7823 15.1493V15.0644C21.7823 14.8867 21.7648 14.7197 21.7298 14.5635C21.6975 14.4045 21.645 14.2645 21.5722 14.1433C21.5022 14.0194 21.4093 13.9224 21.2935 13.8524C21.1776 13.7824 21.0376 13.7473 20.8733 13.7473C20.709 13.7473 20.5689 13.7824 20.4531 13.8524C20.34 13.9224 20.2471 14.0194 20.1743 14.1433C20.1043 14.2645 20.0531 14.4045 20.0208 14.5635C19.9885 14.7197 19.9723 14.8867 19.9723 15.0644ZM20.3157 12.3292L21.1076 11.0848H22.3722L21.2611 12.3292H20.3157Z" fill="#141414"/>
<path d="M24.8933 11.0848V17.2906H23.7257V11.0848H24.8933Z" fill="#141414"/>
<path d="M27.0831 12.9191V17.2906H25.9155V12.9191H27.0831ZM25.8427 11.7798C25.8427 11.6101 25.902 11.47 26.0205 11.3596C26.139 11.2491 26.2979 11.1939 26.4972 11.1939C26.6939 11.1939 26.8514 11.2491 26.9699 11.3596C27.0911 11.47 27.1518 11.6101 27.1518 11.7798C27.1518 11.9494 27.0911 12.0895 26.9699 12.1999C26.8514 12.3104 26.6939 12.3656 26.4972 12.3656C26.2979 12.3656 26.139 12.3104 26.0205 12.1999C25.902 12.0895 25.8427 11.9494 25.8427 11.7798Z" fill="#141414"/>
<path d="M27.8588 15.1493V15.0644C27.8588 14.7439 27.9046 14.449 27.9962 14.1796C28.0877 13.9076 28.2211 13.6719 28.3961 13.4726C28.5712 13.2733 28.7867 13.1184 29.0426 13.008C29.2984 12.8949 29.592 12.8383 29.9233 12.8383C30.2546 12.8383 30.5496 12.8949 30.8081 13.008C31.0667 13.1184 31.2835 13.2733 31.4586 13.4726C31.6364 13.6719 31.771 13.9076 31.8626 14.1796C31.9542 14.449 32 14.7439 32 15.0644V15.1493C32 15.4671 31.9542 15.762 31.8626 16.0341C31.771 16.3034 31.6364 16.5391 31.4586 16.7411C31.2835 16.9404 31.0681 17.0953 30.8122 17.2057C30.5563 17.3162 30.2627 17.3714 29.9314 17.3714C29.6001 17.3714 29.3052 17.3162 29.0466 17.2057C28.7907 17.0953 28.5739 16.9404 28.3961 16.7411C28.2211 16.5391 28.0877 16.3034 27.9962 16.0341C27.9046 15.762 27.8588 15.4671 27.8588 15.1493ZM29.0224 15.0644V15.1493C29.0224 15.3324 29.0385 15.5035 29.0708 15.6624C29.1032 15.8213 29.1543 15.9614 29.2244 16.0826C29.2971 16.2011 29.3914 16.294 29.5072 16.3613C29.623 16.4287 29.7644 16.4624 29.9314 16.4624C30.093 16.4624 30.2317 16.4287 30.3475 16.3613C30.4634 16.294 30.5563 16.2011 30.6263 16.0826C30.6964 15.9614 30.7475 15.8213 30.7799 15.6624C30.8149 15.5035 30.8324 15.3324 30.8324 15.1493V15.0644C30.8324 14.8867 30.8149 14.7197 30.7799 14.5635C30.7475 14.4045 30.695 14.2645 30.6223 14.1433C30.5523 14.0194 30.4593 13.9224 30.3435 13.8524C30.2277 13.7824 30.0876 13.7473 29.9233 13.7473C29.759 13.7473 29.619 13.7824 29.5031 13.8524C29.39 13.9224 29.2971 14.0194 29.2244 14.1433C29.1543 14.2645 29.1032 14.4045 29.0708 14.5635C29.0385 14.7197 29.0224 14.8867 29.0224 15.0644Z" fill="#141414"/>
<path d="M0 19.7729H15.9281V20.1866H0V19.7729Z" fill="url(#paint0_linear_52_30)"/>
<defs>
<linearGradient id="paint0_linear_52_30" x1="0" y1="19.9797" x2="15.9281" y2="19.9797" gradientUnits="userSpaceOnUse">
<stop stop-color="#591DBA"/>
<stop offset="1" stop-color="#2E0079"/>
</linearGradient>
</defs>
</svg>
