<svg width="155" height="45" viewBox="0 0 155 45" fill="none" xmlns="http://www.w3.org/2000/svg">
<path d="M11.6484 20.8633H4.40234V16.293H11.6484C12.7682 16.293 13.6797 16.1107 14.3828 15.7461C15.0859 15.3685 15.6003 14.8477 15.9258 14.1836C16.2513 13.5195 16.4141 12.7708 16.4141 11.9375C16.4141 11.0911 16.2513 10.3034 15.9258 9.57422C15.6003 8.84505 15.0859 8.25911 14.3828 7.81641C13.6797 7.3737 12.7682 7.15234 11.6484 7.15234H6.43359V31H0.574219V2.5625H11.6484C13.875 2.5625 15.7826 2.96615 17.3711 3.77344C18.9727 4.56771 20.1966 5.66797 21.043 7.07422C21.8893 8.48047 22.3125 10.0885 22.3125 11.8984C22.3125 13.7344 21.8893 15.3229 21.043 16.6641C20.1966 18.0052 18.9727 19.0404 17.3711 19.7695C15.7826 20.4987 13.875 20.8633 11.6484 20.8633Z" fill="#141414"/>
<path d="M24.832 20.6484V20.2383C24.832 18.6888 25.0534 17.263 25.4961 15.9609C25.9388 14.6458 26.5833 13.5065 27.4297 12.543C28.276 11.5794 29.3177 10.8307 30.5547 10.2969C31.7917 9.75 33.2109 9.47656 34.8125 9.47656C36.4141 9.47656 37.8398 9.75 39.0898 10.2969C40.3398 10.8307 41.388 11.5794 42.2344 12.543C43.0938 13.5065 43.7448 14.6458 44.1875 15.9609C44.6302 17.263 44.8516 18.6888 44.8516 20.2383V20.6484C44.8516 22.1849 44.6302 23.6107 44.1875 24.9258C43.7448 26.2279 43.0938 27.3672 42.2344 28.3438C41.388 29.3073 40.3464 30.056 39.1094 30.5898C37.8724 31.1237 36.4531 31.3906 34.8516 31.3906C33.25 31.3906 31.8242 31.1237 30.5742 30.5898C29.3372 30.056 28.2891 29.3073 27.4297 28.3438C26.5833 27.3672 25.9388 26.2279 25.4961 24.9258C25.0534 23.6107 24.832 22.1849 24.832 20.6484ZM30.457 20.2383V20.6484C30.457 21.5339 30.5352 22.3607 30.6914 23.1289C30.8477 23.8971 31.0951 24.5742 31.4336 25.1602C31.7852 25.7331 32.2409 26.1823 32.8008 26.5078C33.3607 26.8333 34.0443 26.9961 34.8516 26.9961C35.6328 26.9961 36.3034 26.8333 36.8633 26.5078C37.4232 26.1823 37.8724 25.7331 38.2109 25.1602C38.5495 24.5742 38.7969 23.8971 38.9531 23.1289C39.1224 22.3607 39.207 21.5339 39.207 20.6484V20.2383C39.207 19.3789 39.1224 18.5716 38.9531 17.8164C38.7969 17.0482 38.543 16.3711 38.1914 15.7852C37.8529 15.1862 37.4036 14.7174 36.8438 14.3789C36.2839 14.0404 35.6068 13.8711 34.8125 13.8711C34.0182 13.8711 33.3411 14.0404 32.7812 14.3789C32.2344 14.7174 31.7852 15.1862 31.4336 15.7852C31.0951 16.3711 30.8477 17.0482 30.6914 17.8164C30.5352 18.5716 30.457 19.3789 30.457 20.2383Z" fill="#141414"/>
<path d="M53.9336 14.4766V31H48.3086V9.86719H53.6016L53.9336 14.4766ZM60.3008 9.73047L60.2031 14.9453C59.9297 14.9062 59.5977 14.8737 59.207 14.8477C58.8294 14.8086 58.4844 14.7891 58.1719 14.7891C57.3776 14.7891 56.6875 14.8932 56.1016 15.1016C55.5286 15.2969 55.0469 15.5898 54.6562 15.9805C54.2786 16.3711 53.9922 16.8464 53.7969 17.4062C53.6146 17.9661 53.5104 18.6042 53.4844 19.3203L52.3516 18.9688C52.3516 17.6016 52.4883 16.3451 52.7617 15.1992C53.0352 14.0404 53.4323 13.0312 53.9531 12.1719C54.487 11.3125 55.138 10.6484 55.9062 10.1797C56.6745 9.71094 57.5534 9.47656 58.543 9.47656C58.8555 9.47656 59.1745 9.5026 59.5 9.55469C59.8255 9.59375 60.0924 9.65234 60.3008 9.73047Z" fill="#141414"/>
<path d="M74.2852 9.86719V13.8516H61.9805V9.86719H74.2852ZM65.0273 4.65234H70.6523V24.6328C70.6523 25.2448 70.7305 25.7135 70.8867 26.0391C71.056 26.3646 71.3034 26.5924 71.6289 26.7227C71.9544 26.8398 72.3646 26.8984 72.8594 26.8984C73.2109 26.8984 73.5234 26.8854 73.7969 26.8594C74.0833 26.8203 74.3242 26.7812 74.5195 26.7422L74.5391 30.8828C74.0573 31.0391 73.5365 31.1628 72.9766 31.2539C72.4167 31.3451 71.7982 31.3906 71.1211 31.3906C69.8841 31.3906 68.8034 31.1888 67.8789 30.7852C66.9674 30.3685 66.2643 29.7044 65.7695 28.793C65.2747 27.8815 65.0273 26.6836 65.0273 25.1992V4.65234Z" fill="#141414"/>
<path d="M84.6562 31H78.9922V7.99219C78.9922 6.39062 79.3047 5.04297 79.9297 3.94922C80.5677 2.84245 81.4596 2.00911 82.6055 1.44922C83.7643 0.876302 85.138 0.589844 86.7266 0.589844C87.2474 0.589844 87.7487 0.628906 88.2305 0.707031C88.7122 0.772135 89.181 0.856771 89.6367 0.960938L89.5781 5.19922C89.3307 5.13411 89.0703 5.08854 88.7969 5.0625C88.5234 5.03646 88.2044 5.02344 87.8398 5.02344C87.1628 5.02344 86.5833 5.14062 86.1016 5.375C85.6328 5.59635 85.2747 5.92839 85.0273 6.37109C84.7799 6.8138 84.6562 7.35417 84.6562 7.99219V31ZM91.5898 7.81641L88.875 13.8516H75.8477V9.86719L91.5898 7.81641Z" fill="#141414"/>
<path d="M90.9258 20.6484V20.2383C90.9258 18.6888 91.1471 17.263 91.5898 15.9609C92.0326 14.6458 92.6771 13.5065 93.5234 12.543C94.3698 11.5794 95.4115 10.8307 96.6484 10.2969C97.8854 9.75 99.3047 9.47656 100.906 9.47656C102.508 9.47656 103.934 9.75 105.184 10.2969C106.434 10.8307 107.482 11.5794 108.328 12.543C109.188 13.5065 109.839 14.6458 110.281 15.9609C110.724 17.263 110.945 18.6888 110.945 20.2383V20.6484C110.945 22.1849 110.724 23.6107 110.281 24.9258C109.839 26.2279 109.188 27.3672 108.328 28.3438C107.482 29.3073 106.44 30.056 105.203 30.5898C103.966 31.1237 102.547 31.3906 100.945 31.3906C99.3438 31.3906 97.918 31.1237 96.668 30.5898C95.431 30.056 94.3828 29.3073 93.5234 28.3438C92.6771 27.3672 92.0326 26.2279 91.5898 24.9258C91.1471 23.6107 90.9258 22.1849 90.9258 20.6484ZM96.5508 20.2383V20.6484C96.5508 21.5339 96.6289 22.3607 96.7852 23.1289C96.9414 23.8971 97.1888 24.5742 97.5273 25.1602C97.8789 25.7331 98.3346 26.1823 98.8945 26.5078C99.4544 26.8333 100.138 26.9961 100.945 26.9961C101.727 26.9961 102.397 26.8333 102.957 26.5078C103.517 26.1823 103.966 25.7331 104.305 25.1602C104.643 24.5742 104.891 23.8971 105.047 23.1289C105.216 22.3607 105.301 21.5339 105.301 20.6484V20.2383C105.301 19.3789 105.216 18.5716 105.047 17.8164C104.891 17.0482 104.637 16.3711 104.285 15.7852C103.947 15.1862 103.497 14.7174 102.938 14.3789C102.378 14.0404 101.701 13.8711 100.906 13.8711C100.112 13.8711 99.4349 14.0404 98.875 14.3789C98.3281 14.7174 97.8789 15.1862 97.5273 15.7852C97.1888 16.3711 96.9414 17.0482 96.7852 17.8164C96.6289 18.5716 96.5508 19.3789 96.5508 20.2383ZM98.2109 7.01562L102.039 1H108.152L102.781 7.01562H98.2109Z" fill="#141414"/>
<path d="M120.34 1V31H114.695V1H120.34Z" fill="#141414"/>
<path d="M130.926 9.86719V31H125.281V9.86719H130.926ZM124.93 4.35938C124.93 3.53906 125.216 2.86198 125.789 2.32812C126.362 1.79427 127.13 1.52734 128.094 1.52734C129.044 1.52734 129.806 1.79427 130.379 2.32812C130.965 2.86198 131.258 3.53906 131.258 4.35938C131.258 5.17969 130.965 5.85677 130.379 6.39062C129.806 6.92448 129.044 7.19141 128.094 7.19141C127.13 7.19141 126.362 6.92448 125.789 6.39062C125.216 5.85677 124.93 5.17969 124.93 4.35938Z" fill="#141414"/>
<path d="M134.676 20.6484V20.2383C134.676 18.6888 134.897 17.263 135.34 15.9609C135.783 14.6458 136.427 13.5065 137.273 12.543C138.12 11.5794 139.161 10.8307 140.398 10.2969C141.635 9.75 143.055 9.47656 144.656 9.47656C146.258 9.47656 147.684 9.75 148.934 10.2969C150.184 10.8307 151.232 11.5794 152.078 12.543C152.938 13.5065 153.589 14.6458 154.031 15.9609C154.474 17.263 154.695 18.6888 154.695 20.2383V20.6484C154.695 22.1849 154.474 23.6107 154.031 24.9258C153.589 26.2279 152.938 27.3672 152.078 28.3438C151.232 29.3073 150.19 30.056 148.953 30.5898C147.716 31.1237 146.297 31.3906 144.695 31.3906C143.094 31.3906 141.668 31.1237 140.418 30.5898C139.181 30.056 138.133 29.3073 137.273 28.3438C136.427 27.3672 135.783 26.2279 135.34 24.9258C134.897 23.6107 134.676 22.1849 134.676 20.6484ZM140.301 20.2383V20.6484C140.301 21.5339 140.379 22.3607 140.535 23.1289C140.691 23.8971 140.939 24.5742 141.277 25.1602C141.629 25.7331 142.085 26.1823 142.645 26.5078C143.204 26.8333 143.888 26.9961 144.695 26.9961C145.477 26.9961 146.147 26.8333 146.707 26.5078C147.267 26.1823 147.716 25.7331 148.055 25.1602C148.393 24.5742 148.641 23.8971 148.797 23.1289C148.966 22.3607 149.051 21.5339 149.051 20.6484V20.2383C149.051 19.3789 148.966 18.5716 148.797 17.8164C148.641 17.0482 148.387 16.3711 148.035 15.7852C147.697 15.1862 147.247 14.7174 146.688 14.3789C146.128 14.0404 145.451 13.8711 144.656 13.8711C143.862 13.8711 143.185 14.0404 142.625 14.3789C142.078 14.7174 141.629 15.1862 141.277 15.7852C140.939 16.3711 140.691 17.0482 140.535 17.8164C140.379 18.5716 140.301 19.3789 140.301 20.2383Z" fill="#141414"/>
<path d="M0 43H77V45H0V43Z" fill="url(#paint0_linear_50_10)"/>
<defs>
<linearGradient id="paint0_linear_50_10" x1="0" y1="43.9999" x2="77" y2="43.9999" gradientUnits="userSpaceOnUse">
<stop stop-color="#591DBA"/>
<stop offset="1" stop-color="#2E0079"/>
</linearGradient>
</defs>
</svg>
