<svg width="389" height="321" viewBox="0 0 389 321" fill="none" xmlns="http://www.w3.org/2000/svg">
<rect x="1" width="387" height="320" rx="4" fill="url(#paint0_linear_140_2)"/>
<rect x="0.625" y="232.625" width="387.75" height="87.75" rx="4.375" fill="#E7E7E7" stroke="#292929" stroke-width="0.75"/>
<path d="M122.028 261.894L121.314 266.808H111.066V273.78H120.012V278.61H111.066V286.044H122.028V291H104.178V261.894H122.028ZM155.182 291H148.42L147.916 279.618C147.776 276.902 147.706 274.48 147.706 272.352C147.706 270.728 147.748 269.188 147.832 267.732L143.338 287.934H136.828L132.04 267.732C132.208 270.168 132.292 272.464 132.292 274.62C132.292 276.244 132.25 277.938 132.166 279.702L131.662 291H124.942L127.126 261.894H135.82L140.188 281.634L144.262 261.894H152.998L155.182 291ZM184.768 275.586C186.7 275.95 188.268 276.664 189.472 277.728C190.704 278.792 191.32 280.388 191.32 282.516C191.32 285.624 190.2 287.822 187.96 289.11C185.748 290.37 182.64 291 178.636 291H169.27V261.894H177.502C181.59 261.894 184.712 262.482 186.868 263.658C189.024 264.806 190.102 266.696 190.102 269.328C190.102 271.036 189.584 272.422 188.548 273.486C187.54 274.522 186.28 275.222 184.768 275.586ZM176.158 266.766V273.528H178.72C181.632 273.528 183.088 272.352 183.088 270C183.088 268.824 182.696 267.998 181.912 267.522C181.128 267.018 179.882 266.766 178.174 266.766H176.158ZM178.678 286.002C180.498 286.002 181.87 285.736 182.794 285.204C183.746 284.644 184.222 283.622 184.222 282.138C184.222 279.45 182.542 278.106 179.182 278.106H176.158V286.002H178.678ZM204.768 279.87H202.08V291H195.192V261.894H204.726C208.702 261.894 211.684 262.622 213.672 264.078C215.688 265.534 216.696 267.76 216.696 270.756C216.696 272.632 216.248 274.2 215.352 275.46C214.456 276.692 213.042 277.742 211.11 278.61L218.502 291H210.732L204.768 279.87ZM202.08 275.124H204.978C206.518 275.124 207.666 274.774 208.422 274.074C209.206 273.374 209.598 272.268 209.598 270.756C209.598 269.356 209.178 268.334 208.338 267.69C207.526 267.046 206.266 266.724 204.558 266.724H202.08V275.124ZM238.964 261.894L238.25 266.808H228.002V273.78H236.948V278.61H228.002V286.044H238.964V291H221.114V261.894H238.964ZM265.019 261.894L256.913 291H248.345L239.945 261.894H247.211L252.755 285.624L257.963 261.894H265.019ZM285.024 261.894L284.31 266.808H274.062V273.78H283.008V278.61H274.062V286.044H285.024V291H267.174V261.894H285.024Z" fill="#292929"/>
<defs>
<linearGradient id="paint0_linear_140_2" x1="194.5" y1="0" x2="194.5" y2="320" gradientUnits="userSpaceOnUse">
<stop stop-color="#F8F8F8"/>
<stop offset="1" stop-color="#D9D9D9"/>
</linearGradient>
</defs>
</svg>
