<svg width="414" height="451" viewBox="0 0 414 451" fill="none" xmlns="http://www.w3.org/2000/svg">
<g clip-path="url(#clip0_14_1572)">
<path d="M17.64 395.05L25.94 449.58H74.15L85.34 395.84L17.64 395.05Z" fill="#0E0028"/>
<path d="M78.6 430C78.6 430.16 66.25 430.28 51.01 430.28C35.77 430.28 23.42 430.15 23.42 430C23.42 429.84 35.77 429.72 51.01 429.72C66.25 429.71 78.6 429.84 78.6 430Z" fill="#FAFAFA"/>
<path d="M78.78 427.32C78.78 427.48 66.34 427.6 51.01 427.6C35.67 427.6 23.23 427.47 23.23 427.32C23.23 427.16 35.66 427.04 51.01 427.04C66.35 427.03 78.78 427.16 78.78 427.32Z" fill="#FAFAFA"/>
<path d="M78.69 424.29C78.69 424.45 66.25 424.57 50.92 424.57C35.58 424.57 23.14 424.44 23.14 424.29C23.14 424.13 35.57 424.01 50.92 424.01C66.25 424 78.69 424.13 78.69 424.29Z" fill="#FAFAFA"/>
<path d="M31.48 446.47C31.33 446.5 30.66 443.42 30 439.6C29.34 435.78 28.92 432.66 29.08 432.64C29.23 432.61 29.9 435.69 30.56 439.51C31.22 443.32 31.63 446.44 31.48 446.47Z" fill="#FAFAFA"/>
<path d="M34.76 445.89C34.6 445.89 34.42 442.89 34.16 439.19C33.91 435.49 33.69 432.49 33.85 432.47C34 432.45 34.48 435.44 34.73 439.15C34.98 442.87 34.91 445.89 34.76 445.89Z" fill="#FAFAFA"/>
<path d="M40.74 445.89C40.59 445.92 39.93 442.85 39.49 439.02C39.04 435.19 38.97 432.06 39.12 432.05C39.28 432.04 39.6 435.14 40.05 438.96C40.49 442.77 40.89 445.86 40.74 445.89Z" fill="#FAFAFA"/>
<path d="M44.93 446.17C44.78 446.18 44.39 443.06 44.26 439.19C44.13 435.32 44.32 432.18 44.47 432.18C44.63 432.18 44.69 435.31 44.82 439.17C44.95 443.03 45.09 446.16 44.93 446.17Z" fill="#FAFAFA"/>
<path d="M52.36 445.89C52.2 445.9 51.98 442.93 51.85 439.27C51.73 435.61 51.75 432.63 51.91 432.63C52.07 432.62 52.29 435.59 52.42 439.25C52.54 442.91 52.52 445.88 52.36 445.89Z" fill="#FAFAFA"/>
<path d="M57.78 446.18C57.62 446.18 57.52 443.11 57.55 439.33C57.58 435.55 57.73 432.48 57.89 432.48C58.05 432.48 58.15 435.55 58.12 439.33C58.09 443.11 57.94 446.18 57.78 446.18Z" fill="#FAFAFA"/>
<path d="M62.87 445.45C62.71 445.43 62.9 442.23 63.28 438.29C63.66 434.35 64.1 431.17 64.25 431.18C64.41 431.19 64.22 434.4 63.84 438.34C63.46 442.28 63.03 445.46 62.87 445.45Z" fill="#FAFAFA"/>
<path d="M69.43 444.73C69.28 444.71 69.52 441.96 70.24 438.64C70.96 435.32 71.89 432.72 72.03 432.76C72.18 432.81 71.5 435.46 70.79 438.76C70.07 442.06 69.59 444.76 69.43 444.73Z" fill="#FAFAFA"/>
<path d="M64.79 287.45C64.8 287.45 64.78 287.54 64.73 287.72C64.67 287.93 64.6 288.18 64.5 288.49C64.28 289.21 63.97 290.19 63.58 291.43C63.17 292.7 62.68 294.26 62.16 296.1C61.64 297.93 61 299.99 60.42 302.32C59.81 304.63 59.15 307.17 58.54 309.91C57.87 312.64 57.31 315.59 56.68 318.69C55.52 324.91 54.47 331.78 53.73 339.04C53.02 346.3 52.7 353.25 52.6 359.58C52.6 362.74 52.57 365.75 52.69 368.56C52.74 371.37 52.89 373.99 53.03 376.37C53.13 378.76 53.36 380.91 53.51 382.81C53.65 384.71 53.82 386.33 53.98 387.66C54.11 388.96 54.22 389.98 54.3 390.73C54.33 391.05 54.35 391.32 54.37 391.53C54.38 391.71 54.38 391.8 54.37 391.8C54.36 391.8 54.34 391.71 54.31 391.53C54.28 391.32 54.24 391.06 54.19 390.74C54.09 390 53.95 388.98 53.77 387.68C53.58 386.35 53.38 384.73 53.21 382.83C53.03 380.94 52.78 378.78 52.65 376.39C52.48 374 52.31 371.38 52.24 368.56C52.1 365.74 52.12 362.73 52.1 359.56C52.17 353.22 52.48 346.26 53.18 338.97C53.93 331.69 55 324.8 56.18 318.58C56.82 315.48 57.4 312.52 58.09 309.79C58.71 307.04 59.4 304.51 60.04 302.2C60.64 299.88 61.31 297.82 61.86 296C62.4 294.18 62.92 292.62 63.37 291.36C63.8 290.13 64.14 289.16 64.39 288.45C64.5 288.15 64.59 287.9 64.67 287.7C64.74 287.53 64.78 287.45 64.79 287.45Z" fill="#EBEBEB"/>
<path d="M56.09 321.22C57.39 317.32 60.09 313.91 63.58 311.75C64.77 311.01 66.28 310.41 67.54 311.02C69.22 311.83 69.36 314.2 68.86 316C68.02 319.03 66.04 321.72 63.4 323.44C60.77 325.15 58.32 325.96 55.21 325.51" fill="#EBEBEB"/>
<path d="M53.16 344.02C54.41 339.31 58.16 332.62 62.06 329.71C62.68 329.25 63.34 328.81 64.08 328.63C64.83 328.45 65.69 328.56 66.24 329.1C67.04 329.86 66.96 331.15 66.72 332.22C65.23 339.08 59.51 344.84 52.65 346.38" fill="#EBEBEB"/>
<path d="M52.35 364.09C54.27 359.62 57.4 355.68 61.33 352.8C62.25 352.13 63.34 351.48 64.46 351.68C66.16 351.99 66.94 354.07 66.79 355.79C66.48 359.34 63.77 362.19 60.97 364.39C57.96 366.77 52.67 368.66 52.67 368.66" fill="#EBEBEB"/>
<path d="M52.8 378.51C54.77 375.16 57.22 372 60.44 369.81C61.14 369.33 61.89 368.9 62.73 368.78C63.57 368.67 64.5 368.94 64.98 369.64C65.75 370.76 65.02 372.29 64.2 373.37C61.36 377.12 57.79 379.96 53.3 381.37" fill="#EBEBEB"/>
<path d="M52.43 372.65C49.14 368.62 45.48 364.89 41.51 361.52C40.89 361 40.11 360.44 39.33 360.7C38.73 360.89 38.37 361.54 38.33 362.17C38.29 362.8 38.5 363.41 38.75 363.99C41.14 369.76 46.76 374.28 52.81 375.82" fill="#EBEBEB"/>
<path d="M52.78 353.88C49.92 350.39 47.06 346.91 44.2 343.42C43.38 342.42 42.54 341.41 41.42 340.78C40.3 340.15 38.81 340 37.76 340.74C36.71 341.48 36.36 342.93 36.59 344.19C36.82 345.45 37.53 346.57 38.26 347.63C40 350.14 41.99 352.54 44.51 354.27C47.03 356 49.32 357.13 52.34 356.68" fill="#EBEBEB"/>
<path d="M53.97 332.74C52.3 327.76 49.29 323.23 45.34 319.78C44.68 319.2 43.95 318.63 43.09 318.47C41.37 318.14 39.71 319.57 39.15 321.23C38.52 323.1 38.95 325.2 39.93 326.91C40.91 328.62 42.4 329.98 43.96 331.17C46.84 333.38 50.08 335.12 53.51 336.32" fill="#EBEBEB"/>
<path d="M57.4 313.89C56.57 307.83 53.41 302.78 49.75 297.87C48.98 296.84 47.9 295.74 46.63 295.93C45.82 296.05 45.16 296.71 44.84 297.47C44.52 298.23 44.48 299.07 44.5 299.89C44.69 307.22 49.75 314.18 56.66 316.63" fill="#EBEBEB"/>
<path d="M59.8 304.27C59.5 301.15 59.2 298.01 59.49 294.89C59.78 291.77 60.69 288.64 62.6 286.16C63.42 285.09 64.45 284.14 65.72 283.68C66.98 283.22 68.51 283.32 69.54 284.19C70.5 284.99 70.9 286.31 70.85 287.56C70.8 288.81 70.36 290 69.88 291.15C67.59 296.64 63.78 302.73 59.8 304.27Z" fill="#EBEBEB"/>
<path d="M22.42 311.5C22.44 311.5 22.46 311.77 22.47 312.27C22.48 312.83 22.48 313.56 22.49 314.47C22.49 315.43 22.49 316.59 22.54 317.95C22.58 319.31 22.59 320.85 22.71 322.55C22.86 325.96 23.19 330.01 23.71 334.5C24.27 338.98 25.03 343.88 26.08 348.98C27.16 354.08 28.43 358.87 29.73 363.2C31.06 367.51 32.38 371.36 33.62 374.54C34.2 376.15 34.81 377.56 35.32 378.82C35.82 380.08 36.28 381.15 36.67 382.03C37.03 382.87 37.31 383.54 37.53 384.06C37.72 384.53 37.81 384.77 37.8 384.78C37.78 384.79 37.66 384.56 37.43 384.11C37.19 383.61 36.87 382.95 36.47 382.13C36.05 381.27 35.56 380.21 35.03 378.95C34.5 377.7 33.86 376.29 33.25 374.69C31.96 371.52 30.6 367.67 29.24 363.36C27.92 359.03 26.63 354.22 25.54 349.1C24.48 343.98 23.73 339.06 23.2 334.56C22.71 330.06 22.42 325.99 22.32 322.57C22.23 320.86 22.25 319.31 22.24 317.95C22.22 316.59 22.25 315.42 22.28 314.46C22.31 313.55 22.34 312.82 22.36 312.26C22.38 311.76 22.4 311.5 22.42 311.5Z" fill="#E0E0E0"/>
<path d="M23.76 336.36C23.81 333.43 24.91 330.52 26.82 328.3C27.47 327.54 28.37 326.81 29.36 326.95C30.68 327.14 31.28 328.72 31.33 330.06C31.41 332.3 30.64 334.56 29.22 336.3C27.8 338.03 26.3 339.11 24.09 339.47" fill="#E0E0E0"/>
<path d="M26.68 352.51C26.51 349.04 27.63 343.67 29.66 340.85C29.98 340.4 30.34 339.96 30.81 339.68C31.28 339.4 31.89 339.29 32.38 339.53C33.09 339.88 33.31 340.77 33.38 341.55C33.84 346.54 31.19 351.7 26.85 354.22" fill="#E0E0E0"/>
<path d="M30.45 366.35C30.79 362.89 32.08 359.53 34.13 356.73C34.61 356.07 35.21 355.4 36.02 355.3C37.25 355.14 38.22 356.39 38.49 357.6C39.04 360.08 37.81 362.6 36.38 364.71C34.84 366.98 31.65 369.4 31.65 369.4" fill="#E0E0E0"/>
<path d="M33.86 376.07C34.48 373.36 35.47 370.69 37.19 368.51C37.56 368.04 37.98 367.58 38.53 367.32C39.07 367.06 39.77 367.04 40.24 367.42C41 368.02 40.83 369.21 40.51 370.13C39.39 373.29 37.56 376 34.81 377.92" fill="#E0E0E0"/>
<path d="M32.34 372.17C29.23 370.13 25.94 368.38 22.51 366.95C21.97 366.73 21.32 366.52 20.85 366.86C20.48 367.12 20.38 367.64 20.48 368.08C20.59 368.52 20.87 368.89 21.16 369.23C24.03 372.64 28.83 374.51 33.28 374.26" fill="#E0E0E0"/>
<path d="M28.54 359.31C25.84 357.55 23.14 355.79 20.45 354.04C19.68 353.54 18.89 353.03 17.99 352.84C17.09 352.65 16.05 352.87 15.49 353.6C14.93 354.33 15 355.39 15.43 356.2C15.86 357.01 16.58 357.62 17.31 358.18C19.04 359.51 20.91 360.72 23 361.36C25.09 362 26.89 362.27 28.85 361.32" fill="#E0E0E0"/>
<path d="M24.8 344.66C22.59 341.63 19.57 339.2 16.13 337.69C15.56 337.44 14.94 337.21 14.32 337.28C13.08 337.42 12.26 338.76 12.23 340.01C12.21 341.42 12.95 342.76 13.99 343.71C15.03 344.66 16.33 345.27 17.65 345.75C20.09 346.63 22.67 347.12 25.26 347.2" fill="#E0E0E0"/>
<path d="M23.08 331.09C21.21 327.14 17.97 324.38 14.43 321.83C13.68 321.29 12.71 320.78 11.89 321.18C11.36 321.44 11.06 322.03 11 322.61C10.94 323.19 11.1 323.78 11.29 324.33C13 329.28 17.94 332.93 23.17 333.11" fill="#E0E0E0"/>
<path d="M22.64 324.02C21.76 321.96 20.88 319.89 20.41 317.7C19.93 315.51 19.88 313.19 20.65 311.08C20.98 310.18 21.48 309.31 22.24 308.72C23 308.13 24.06 307.88 24.95 308.24C25.77 308.58 26.33 309.39 26.56 310.25C26.8 311.11 26.75 312.02 26.68 312.9C26.3 317.15 25.02 322.12 22.64 324.02Z" fill="#E0E0E0"/>
<path d="M83.37 310.97C83.39 310.97 83.41 311.23 83.44 311.74C83.46 312.3 83.49 313.03 83.52 313.94C83.56 314.9 83.58 316.07 83.56 317.43C83.55 318.79 83.56 320.34 83.48 322.05C83.38 325.47 83.09 329.54 82.6 334.04C82.07 338.54 81.32 343.46 80.26 348.58C79.17 353.69 77.88 358.51 76.56 362.84C75.2 367.16 73.83 371 72.55 374.17C71.94 375.77 71.3 377.18 70.77 378.43C70.24 379.68 69.75 380.74 69.33 381.61C68.93 382.43 68.61 383.09 68.37 383.59C68.14 384.04 68.02 384.27 68 384.26C67.98 384.25 68.07 384 68.27 383.54C68.49 383.03 68.78 382.35 69.13 381.52C69.52 380.65 69.98 379.57 70.48 378.31C70.98 377.05 71.6 375.63 72.18 374.03C73.41 370.85 74.74 367 76.07 362.69C77.36 358.37 78.63 353.57 79.72 348.47C80.78 343.37 81.54 338.47 82.09 333.99C82.61 329.51 82.94 325.45 83.09 322.04C83.2 320.34 83.21 318.79 83.26 317.43C83.31 316.07 83.32 314.91 83.31 313.95C83.32 313.04 83.33 312.31 83.33 311.75C83.33 311.23 83.35 310.97 83.37 310.97Z" fill="#EBEBEB"/>
<path d="M82.02 335.83C81.97 332.9 80.87 329.99 78.96 327.77C78.31 327.01 77.41 326.28 76.42 326.42C75.1 326.61 74.5 328.19 74.45 329.53C74.37 331.77 75.14 334.03 76.56 335.77C77.98 337.5 79.48 338.58 81.69 338.94" fill="#EBEBEB"/>
<path d="M79.11 351.98C79.28 348.51 78.16 343.14 76.13 340.32C75.81 339.87 75.45 339.43 74.98 339.15C74.51 338.87 73.9 338.76 73.41 339C72.7 339.35 72.48 340.24 72.41 341.02C71.95 346.01 74.6 351.17 78.94 353.69" fill="#EBEBEB"/>
<path d="M75.34 365.82C75 362.36 73.71 359 71.66 356.2C71.18 355.54 70.58 354.87 69.77 354.77C68.54 354.61 67.57 355.86 67.3 357.07C66.75 359.55 67.98 362.08 69.41 364.18C70.95 366.45 74.15 368.87 74.15 368.87" fill="#EBEBEB"/>
<path d="M71.92 375.54C71.3 372.83 70.31 370.16 68.59 367.98C68.22 367.51 67.8 367.05 67.25 366.79C66.7 366.53 66.01 366.52 65.53 366.89C64.77 367.49 64.94 368.68 65.26 369.6C66.38 372.76 68.21 375.47 70.96 377.39" fill="#EBEBEB"/>
<path d="M73.44 371.64C76.55 369.6 79.84 367.85 83.27 366.42C83.81 366.2 84.46 365.99 84.93 366.33C85.3 366.59 85.4 367.11 85.3 367.55C85.19 367.99 84.91 368.36 84.62 368.7C81.75 372.11 76.95 373.98 72.5 373.73" fill="#EBEBEB"/>
<path d="M77.25 358.78C79.95 357.02 82.65 355.26 85.34 353.51C86.11 353.01 86.9 352.5 87.8 352.31C88.7 352.12 89.74 352.34 90.3 353.07C90.86 353.8 90.79 354.86 90.36 355.67C89.93 356.48 89.21 357.09 88.48 357.65C86.75 358.98 84.88 360.19 82.79 360.83C80.7 361.47 78.9 361.74 76.94 360.79" fill="#EBEBEB"/>
<path d="M80.98 344.13C83.19 341.1 86.21 338.67 89.65 337.16C90.22 336.91 90.84 336.68 91.46 336.75C92.7 336.89 93.52 338.23 93.54 339.48C93.56 340.89 92.82 342.23 91.78 343.18C90.74 344.13 89.44 344.74 88.12 345.22C85.68 346.1 83.1 346.59 80.51 346.67" fill="#EBEBEB"/>
<path d="M82.71 330.56C84.58 326.61 87.82 323.85 91.36 321.3C92.11 320.76 93.08 320.25 93.9 320.65C94.43 320.91 94.73 321.5 94.79 322.08C94.85 322.66 94.69 323.25 94.5 323.8C92.79 328.75 87.85 332.4 82.62 332.58" fill="#EBEBEB"/>
<path d="M83.14 323.49C84.02 321.43 84.9 319.36 85.37 317.17C85.85 314.98 85.9 312.65 85.13 310.55C84.8 309.65 84.3 308.78 83.54 308.19C82.78 307.6 81.72 307.35 80.83 307.71C80.01 308.05 79.45 308.86 79.21 309.72C78.97 310.58 79.02 311.49 79.1 312.37C79.48 316.62 80.76 321.59 83.14 323.49Z" fill="#EBEBEB"/>
<path d="M12.11 384.25V394.45C12.11 396.67 13.91 398.47 16.13 398.47H85.94C88.16 398.47 89.96 396.67 89.96 394.45V384.25H12.11Z" fill="#0C0023"/>
<path d="M18.17 398.47L18.75 401.72L83.16 406.31L84.79 398.47H18.17Z" fill="#070014"/>
<path d="M410.06 181.32C410.06 181.24 410.59 181.18 411.25 181.18C411.38 181.18 411.5 181.18 411.65 181.19L411.52 181.32C411.54 180.86 411.59 180.53 411.65 180.53C411.71 180.53 411.76 180.86 411.78 181.32L411.79 181.45H411.65C411.5 181.45 411.38 181.46 411.25 181.46C410.6 181.46 410.06 181.4 410.06 181.32Z" fill="#E0E0E0"/>
<path d="M406.88 181.32C406.88 181.24 407.24 181.18 407.67 181.18C408.11 181.18 408.47 181.24 408.47 181.32C408.47 181.4 408.11 181.46 407.67 181.46C407.24 181.46 406.88 181.4 406.88 181.32Z" fill="#E0E0E0"/>
<path d="M403.7 181.32C403.7 181.24 404.06 181.18 404.49 181.18C404.93 181.18 405.28 181.24 405.28 181.32C405.28 181.4 404.92 181.46 404.49 181.46C404.06 181.46 403.7 181.4 403.7 181.32Z" fill="#E0E0E0"/>
<path d="M400.53 181.32C400.53 181.24 400.89 181.18 401.32 181.18C401.76 181.18 402.11 181.24 402.11 181.32C402.11 181.4 401.75 181.46 401.32 181.46C400.88 181.46 400.53 181.4 400.53 181.32Z" fill="#E0E0E0"/>
<path d="M397.35 181.32C397.35 181.24 397.71 181.18 398.14 181.18C398.58 181.18 398.94 181.24 398.94 181.32C398.94 181.4 398.58 181.46 398.14 181.46C397.7 181.46 397.35 181.4 397.35 181.32Z" fill="#E0E0E0"/>
<path d="M394.17 181.32C394.17 181.24 394.53 181.18 394.96 181.18C395.4 181.18 395.76 181.24 395.76 181.32C395.76 181.4 395.4 181.46 394.96 181.46C394.52 181.46 394.17 181.4 394.17 181.32Z" fill="#E0E0E0"/>
<path d="M390.99 181.32C390.99 181.24 391.35 181.18 391.78 181.18C392.22 181.18 392.58 181.24 392.58 181.32C392.58 181.4 392.22 181.46 391.78 181.46C391.34 181.46 390.99 181.4 390.99 181.32Z" fill="#E0E0E0"/>
<path d="M387.81 181.32C387.81 181.24 388.17 181.18 388.6 181.18C389.04 181.18 389.4 181.24 389.4 181.32C389.4 181.4 389.04 181.46 388.6 181.46C388.16 181.46 387.81 181.4 387.81 181.32Z" fill="#E0E0E0"/>
<path d="M384.63 181.32C384.63 181.24 384.99 181.18 385.42 181.18C385.86 181.18 386.22 181.24 386.22 181.32C386.22 181.4 385.86 181.46 385.42 181.46C384.98 181.46 384.63 181.4 384.63 181.32Z" fill="#E0E0E0"/>
<path d="M381.45 181.32C381.45 181.24 381.81 181.18 382.24 181.18C382.68 181.18 383.04 181.24 383.04 181.32C383.04 181.4 382.68 181.46 382.24 181.46C381.8 181.46 381.45 181.4 381.45 181.32Z" fill="#E0E0E0"/>
<path d="M378.27 181.32C378.27 181.24 378.63 181.18 379.06 181.18C379.5 181.18 379.86 181.24 379.86 181.32C379.86 181.4 379.5 181.46 379.06 181.46C378.62 181.46 378.27 181.4 378.27 181.32Z" fill="#E0E0E0"/>
<path d="M375.09 181.32C375.09 181.24 375.45 181.18 375.88 181.18C376.32 181.18 376.68 181.24 376.68 181.32C376.68 181.4 376.32 181.46 375.88 181.46C375.44 181.46 375.09 181.4 375.09 181.32Z" fill="#E0E0E0"/>
<path d="M371.91 181.32C371.91 181.24 372.27 181.18 372.7 181.18C373.14 181.18 373.5 181.24 373.5 181.32C373.5 181.4 373.14 181.46 372.7 181.46C372.26 181.46 371.91 181.4 371.91 181.32Z" fill="#E0E0E0"/>
<path d="M368.73 181.32C368.73 181.24 369.09 181.18 369.52 181.18C369.96 181.18 370.32 181.24 370.32 181.32C370.32 181.4 369.96 181.46 369.52 181.46C369.08 181.46 368.73 181.4 368.73 181.32Z" fill="#E0E0E0"/>
<path d="M365.55 181.32C365.55 181.24 365.91 181.18 366.34 181.18C366.78 181.18 367.14 181.24 367.14 181.32C367.14 181.4 366.78 181.46 366.34 181.46C365.9 181.46 365.55 181.4 365.55 181.32Z" fill="#E0E0E0"/>
<path d="M362.37 181.32C362.37 181.24 362.73 181.18 363.16 181.18C363.6 181.18 363.96 181.24 363.96 181.32C363.96 181.4 363.6 181.46 363.16 181.46C362.72 181.46 362.37 181.4 362.37 181.32Z" fill="#E0E0E0"/>
<path d="M359.19 181.32C359.19 181.24 359.55 181.18 359.99 181.18C360.43 181.18 360.78 181.24 360.78 181.32C360.78 181.4 360.42 181.46 359.99 181.46C359.54 181.46 359.19 181.4 359.19 181.32Z" fill="#E0E0E0"/>
<path d="M356.01 181.32C356.01 181.24 356.37 181.18 356.8 181.18C357.24 181.18 357.6 181.24 357.6 181.32C357.6 181.4 357.24 181.46 356.8 181.46C356.37 181.46 356.01 181.4 356.01 181.32Z" fill="#E0E0E0"/>
<path d="M355.02 179.14C355.1 179.14 355.16 179.5 355.16 179.93C355.16 180.37 355.1 180.72 355.02 180.72C354.94 180.72 354.88 180.36 354.88 179.93C354.88 179.49 354.94 179.14 355.02 179.14Z" fill="#E0E0E0"/>
<path d="M355.02 175.96C355.1 175.96 355.16 176.32 355.16 176.75C355.16 177.19 355.1 177.54 355.02 177.54C354.94 177.54 354.88 177.18 354.88 176.75C354.88 176.31 354.94 175.96 355.02 175.96Z" fill="#E0E0E0"/>
<path d="M355.02 172.78C355.1 172.78 355.16 173.14 355.16 173.57C355.16 174 355.1 174.36 355.02 174.36C354.94 174.36 354.88 174 354.88 173.57C354.88 173.14 354.94 172.78 355.02 172.78Z" fill="#E0E0E0"/>
<path d="M355.02 169.6C355.1 169.6 355.16 169.96 355.16 170.39C355.16 170.83 355.1 171.18 355.02 171.18C354.94 171.18 354.88 170.82 354.88 170.39C354.88 169.95 354.94 169.6 355.02 169.6Z" fill="#E0E0E0"/>
<path d="M355.02 166.42C355.1 166.42 355.16 166.78 355.16 167.21C355.16 167.64 355.1 168 355.02 168C354.94 168 354.88 167.64 354.88 167.21C354.88 166.78 354.94 166.42 355.02 166.42Z" fill="#E0E0E0"/>
<path d="M355.02 163.24C355.1 163.24 355.16 163.6 355.16 164.03C355.16 164.47 355.1 164.82 355.02 164.82C354.94 164.82 354.88 164.46 354.88 164.03C354.88 163.59 354.94 163.24 355.02 163.24Z" fill="#E0E0E0"/>
<path d="M355.02 160.06C355.1 160.06 355.16 160.42 355.16 160.85C355.16 161.29 355.1 161.64 355.02 161.64C354.94 161.64 354.88 161.28 354.88 160.85C354.88 160.41 354.94 160.06 355.02 160.06Z" fill="#E0E0E0"/>
<path d="M355.02 156.88C355.1 156.88 355.16 157.24 355.16 157.67C355.16 158.1 355.1 158.46 355.02 158.46C354.94 158.46 354.88 158.1 354.88 157.67C354.88 157.24 354.94 156.88 355.02 156.88Z" fill="#E0E0E0"/>
<path d="M355.02 153.7C355.1 153.7 355.16 154.06 355.16 154.49C355.16 154.93 355.1 155.28 355.02 155.28C354.94 155.28 354.88 154.92 354.88 154.49C354.88 154.05 354.94 153.7 355.02 153.7Z" fill="#E0E0E0"/>
<path d="M355.02 150.52C355.1 150.52 355.16 150.88 355.16 151.31C355.16 151.75 355.1 152.1 355.02 152.1C354.94 152.1 354.88 151.74 354.88 151.31C354.88 150.87 354.94 150.52 355.02 150.52Z" fill="#E0E0E0"/>
<path d="M355.02 147.34C355.1 147.34 355.16 147.7 355.16 148.13C355.16 148.57 355.1 148.92 355.02 148.92C354.94 148.92 354.88 148.56 354.88 148.13C354.88 147.69 354.94 147.34 355.02 147.34Z" fill="#E0E0E0"/>
<path d="M355.02 144.16C355.1 144.16 355.16 144.52 355.16 144.95C355.16 145.39 355.1 145.74 355.02 145.74C354.94 145.74 354.88 145.38 354.88 144.95C354.88 144.51 354.94 144.16 355.02 144.16Z" fill="#E0E0E0"/>
<path d="M355.02 140.98C355.1 140.98 355.16 141.34 355.16 141.77C355.16 142.21 355.1 142.56 355.02 142.56C354.94 142.56 354.88 142.2 354.88 141.77C354.88 141.33 354.94 140.98 355.02 140.98Z" fill="#E0E0E0"/>
<path d="M355.02 137.8C355.1 137.8 355.16 138.16 355.16 138.59C355.16 139.03 355.1 139.38 355.02 139.38C354.94 139.38 354.88 139.02 354.88 138.59C354.88 138.15 354.94 137.8 355.02 137.8Z" fill="#E0E0E0"/>
<path d="M355.02 134.62C355.1 134.62 355.16 134.98 355.16 135.41C355.16 135.85 355.1 136.2 355.02 136.2C354.94 136.2 354.88 135.84 354.88 135.41C354.88 134.98 354.94 134.62 355.02 134.62Z" fill="#E0E0E0"/>
<path d="M355.02 131.44C355.1 131.44 355.16 131.8 355.16 132.23C355.16 132.66 355.1 133.02 355.02 133.02C354.94 133.02 354.88 132.66 354.88 132.23C354.88 131.8 354.94 131.44 355.02 131.44Z" fill="#E0E0E0"/>
<path d="M355.02 128.26C355.1 128.26 355.16 128.62 355.16 129.05C355.16 129.49 355.1 129.84 355.02 129.84C354.94 129.84 354.88 129.48 354.88 129.05C354.88 128.62 354.94 128.26 355.02 128.26Z" fill="#E0E0E0"/>
<path d="M355.02 125.08C355.1 125.08 355.16 125.44 355.16 125.87C355.16 126.31 355.1 126.66 355.02 126.66C354.94 126.66 354.88 126.3 354.88 125.87C354.88 125.44 354.94 125.08 355.02 125.08Z" fill="#E0E0E0"/>
<path d="M357.8 124.69C357.8 124.77 357.44 124.83 357.01 124.83C356.57 124.83 356.21 124.77 356.21 124.69C356.21 124.61 356.57 124.55 357.01 124.55C357.45 124.55 357.8 124.61 357.8 124.69Z" fill="#E0E0E0"/>
<path d="M360.98 124.69C360.98 124.77 360.62 124.83 360.19 124.83C359.75 124.83 359.39 124.77 359.39 124.69C359.39 124.61 359.75 124.55 360.19 124.55C360.63 124.55 360.98 124.61 360.98 124.69Z" fill="#E0E0E0"/>
<path d="M364.16 124.69C364.16 124.77 363.8 124.83 363.37 124.83C362.93 124.83 362.58 124.77 362.58 124.69C362.58 124.61 362.94 124.55 363.37 124.55C363.81 124.55 364.16 124.61 364.16 124.69Z" fill="#E0E0E0"/>
<path d="M367.34 124.69C367.34 124.77 366.98 124.83 366.55 124.83C366.11 124.83 365.76 124.77 365.76 124.69C365.76 124.61 366.12 124.55 366.55 124.55C366.99 124.55 367.34 124.61 367.34 124.69Z" fill="#E0E0E0"/>
<path d="M370.52 124.69C370.52 124.77 370.16 124.83 369.73 124.83C369.29 124.83 368.93 124.77 368.93 124.69C368.93 124.61 369.29 124.55 369.73 124.55C370.16 124.55 370.52 124.61 370.52 124.69Z" fill="#E0E0E0"/>
<path d="M373.7 124.69C373.7 124.77 373.34 124.83 372.91 124.83C372.47 124.83 372.12 124.77 372.12 124.69C372.12 124.61 372.48 124.55 372.91 124.55C373.34 124.55 373.7 124.61 373.7 124.69Z" fill="#E0E0E0"/>
<path d="M376.88 124.69C376.88 124.77 376.52 124.83 376.09 124.83C375.65 124.83 375.3 124.77 375.3 124.69C375.3 124.61 375.66 124.55 376.09 124.55C376.52 124.55 376.88 124.61 376.88 124.69Z" fill="#E0E0E0"/>
<path d="M380.06 124.69C380.06 124.77 379.7 124.83 379.27 124.83C378.83 124.83 378.48 124.77 378.48 124.69C378.48 124.61 378.84 124.55 379.27 124.55C379.7 124.55 380.06 124.61 380.06 124.69Z" fill="#E0E0E0"/>
<path d="M383.24 124.69C383.24 124.77 382.88 124.83 382.45 124.83C382.01 124.83 381.66 124.77 381.66 124.69C381.66 124.61 382.02 124.55 382.45 124.55C382.88 124.55 383.24 124.61 383.24 124.69Z" fill="#E0E0E0"/>
<path d="M386.42 124.69C386.42 124.77 386.06 124.83 385.63 124.83C385.19 124.83 384.83 124.77 384.83 124.69C384.83 124.61 385.19 124.55 385.63 124.55C386.06 124.55 386.42 124.61 386.42 124.69Z" fill="#E0E0E0"/>
<path d="M389.6 124.69C389.6 124.77 389.24 124.83 388.81 124.83C388.37 124.83 388.02 124.77 388.02 124.69C388.02 124.61 388.38 124.55 388.81 124.55C389.24 124.55 389.6 124.61 389.6 124.69Z" fill="#E0E0E0"/>
<path d="M392.78 124.69C392.78 124.77 392.42 124.83 391.99 124.83C391.55 124.83 391.19 124.77 391.19 124.69C391.19 124.61 391.55 124.55 391.99 124.55C392.42 124.55 392.78 124.61 392.78 124.69Z" fill="#E0E0E0"/>
<path d="M395.96 124.69C395.96 124.77 395.6 124.83 395.17 124.83C394.73 124.83 394.37 124.77 394.37 124.69C394.37 124.61 394.73 124.55 395.17 124.55C395.6 124.55 395.96 124.61 395.96 124.69Z" fill="#E0E0E0"/>
<path d="M399.14 124.69C399.14 124.77 398.78 124.83 398.35 124.83C397.91 124.83 397.55 124.77 397.55 124.69C397.55 124.61 397.91 124.55 398.35 124.55C398.78 124.55 399.14 124.61 399.14 124.69Z" fill="#E0E0E0"/>
<path d="M402.32 124.69C402.32 124.77 401.96 124.83 401.53 124.83C401.09 124.83 400.73 124.77 400.73 124.69C400.73 124.61 401.09 124.55 401.53 124.55C401.96 124.55 402.32 124.61 402.32 124.69Z" fill="#E0E0E0"/>
<path d="M405.5 124.69C405.5 124.77 405.14 124.83 404.71 124.83C404.27 124.83 403.91 124.77 403.91 124.69C403.91 124.61 404.27 124.55 404.71 124.55C405.14 124.55 405.5 124.61 405.5 124.69Z" fill="#E0E0E0"/>
<path d="M408.68 124.69C408.68 124.77 408.32 124.83 407.89 124.83C407.45 124.83 407.1 124.77 407.1 124.69C407.1 124.61 407.46 124.55 407.89 124.55C408.32 124.55 408.68 124.61 408.68 124.69Z" fill="#E0E0E0"/>
<path d="M411.65 124.89C411.61 124.89 411.58 124.81 411.56 124.69L411.65 124.78C411.51 124.81 411.29 124.83 411.06 124.83C410.62 124.83 410.27 124.77 410.27 124.69C410.27 124.61 410.63 124.55 411.06 124.55C411.3 124.55 411.51 124.57 411.65 124.6L411.76 124.62L411.75 124.69C411.72 124.81 411.69 124.89 411.65 124.89Z" fill="#E0E0E0"/>
<path d="M411.65 128.06C411.727 128.06 411.79 127.706 411.79 127.27C411.79 126.834 411.727 126.48 411.65 126.48C411.573 126.48 411.51 126.834 411.51 127.27C411.51 127.706 411.573 128.06 411.65 128.06Z" fill="#E0E0E0"/>
<path d="M411.65 131.25C411.57 131.25 411.51 130.89 411.51 130.46C411.51 130.02 411.57 129.67 411.65 129.67C411.73 129.67 411.79 130.03 411.79 130.46C411.79 130.89 411.73 131.25 411.65 131.25Z" fill="#E0E0E0"/>
<path d="M411.65 134.43C411.57 134.43 411.51 134.07 411.51 133.64C411.51 133.2 411.57 132.85 411.65 132.85C411.73 132.85 411.79 133.21 411.79 133.64C411.79 134.07 411.73 134.43 411.65 134.43Z" fill="#E0E0E0"/>
<path d="M411.65 137.61C411.57 137.61 411.51 137.25 411.51 136.82C411.51 136.38 411.57 136.03 411.65 136.03C411.73 136.03 411.79 136.39 411.79 136.82C411.79 137.25 411.73 137.61 411.65 137.61Z" fill="#E0E0E0"/>
<path d="M411.65 140.79C411.57 140.79 411.51 140.43 411.51 140C411.51 139.56 411.57 139.21 411.65 139.21C411.73 139.21 411.79 139.57 411.79 140C411.79 140.43 411.73 140.79 411.65 140.79Z" fill="#E0E0E0"/>
<path d="M411.65 143.96C411.727 143.96 411.79 143.606 411.79 143.17C411.79 142.734 411.727 142.38 411.65 142.38C411.573 142.38 411.51 142.734 411.51 143.17C411.51 143.606 411.573 143.96 411.65 143.96Z" fill="#E0E0E0"/>
<path d="M411.65 147.14C411.727 147.14 411.79 146.786 411.79 146.35C411.79 145.914 411.727 145.56 411.65 145.56C411.573 145.56 411.51 145.914 411.51 146.35C411.51 146.786 411.573 147.14 411.65 147.14Z" fill="#E0E0E0"/>
<path d="M411.65 150.33C411.57 150.33 411.51 149.97 411.51 149.54C411.51 149.1 411.57 148.75 411.65 148.75C411.73 148.75 411.79 149.11 411.79 149.54C411.79 149.97 411.73 150.33 411.65 150.33Z" fill="#E0E0E0"/>
<path d="M411.65 153.51C411.57 153.51 411.51 153.15 411.51 152.72C411.51 152.28 411.57 151.93 411.65 151.93C411.73 151.93 411.79 152.29 411.79 152.72C411.79 153.15 411.73 153.51 411.65 153.51Z" fill="#E0E0E0"/>
<path d="M411.65 156.69C411.57 156.69 411.51 156.33 411.51 155.9C411.51 155.46 411.57 155.11 411.65 155.11C411.73 155.11 411.79 155.47 411.79 155.9C411.79 156.33 411.73 156.69 411.65 156.69Z" fill="#E0E0E0"/>
<path d="M411.65 159.87C411.57 159.87 411.51 159.51 411.51 159.08C411.51 158.64 411.57 158.29 411.65 158.29C411.73 158.29 411.79 158.65 411.79 159.08C411.79 159.51 411.73 159.87 411.65 159.87Z" fill="#E0E0E0"/>
<path d="M411.65 163.04C411.57 163.04 411.51 162.68 411.51 162.24C411.51 161.8 411.57 161.45 411.65 161.45C411.73 161.45 411.79 161.81 411.79 162.24C411.79 162.69 411.73 163.04 411.65 163.04Z" fill="#E0E0E0"/>
<path d="M411.65 166.22C411.727 166.22 411.79 165.866 411.79 165.43C411.79 164.994 411.727 164.64 411.65 164.64C411.573 164.64 411.51 164.994 411.51 165.43C411.51 165.866 411.573 166.22 411.65 166.22Z" fill="#E0E0E0"/>
<path d="M411.65 169.4C411.727 169.4 411.79 169.046 411.79 168.61C411.79 168.174 411.727 167.82 411.65 167.82C411.573 167.82 411.51 168.174 411.51 168.61C411.51 169.046 411.573 169.4 411.65 169.4Z" fill="#E0E0E0"/>
<path d="M411.65 172.58C411.57 172.58 411.51 172.22 411.51 171.79C411.51 171.35 411.57 171 411.65 171C411.73 171 411.79 171.36 411.79 171.79C411.79 172.23 411.73 172.58 411.65 172.58Z" fill="#E0E0E0"/>
<path d="M411.65 175.76C411.57 175.76 411.51 175.4 411.51 174.97C411.51 174.53 411.57 174.18 411.65 174.18C411.73 174.18 411.79 174.54 411.79 174.97C411.79 175.41 411.73 175.76 411.65 175.76Z" fill="#E0E0E0"/>
<path d="M411.65 178.94C411.57 178.94 411.51 178.58 411.51 178.15C411.51 177.71 411.57 177.36 411.65 177.36C411.73 177.36 411.79 177.72 411.79 178.15C411.79 178.59 411.73 178.94 411.65 178.94Z" fill="#E0E0E0"/>
<path d="M413.75 178.65H409.56V182.84H413.75V178.65Z" fill="#E0E0E0"/>
<path d="M357.11 179.23H352.92V183.42H357.11V179.23Z" fill="#E0E0E0"/>
<path d="M413.75 122.18H409.56V126.37H413.75V122.18Z" fill="#E0E0E0"/>
<path d="M357.11 122.59H352.92V126.78H357.11V122.59Z" fill="#E0E0E0"/>
<path d="M348.1 54.0701L337.15 56.8701L336.62 60.2201C336.45 61.3401 336.45 62.2201 336.62 62.8801C336.84 63.7501 337.36 64.3001 338.16 64.5301C338.63 64.6701 339.69 64.5901 341.34 64.3001L341.56 65.1501L331.25 67.7901L331.03 66.9401C332.1 66.4901 332.9 65.7901 333.42 64.8501C333.94 63.9101 334.43 62.1301 334.88 59.5001L339.64 31.9201L340.07 31.8101L357.75 54.3801C359.43 56.5201 360.7 57.8101 361.54 58.2601C362.18 58.6001 362.98 58.6901 363.95 58.5201L364.17 59.3701L349.17 63.2101L348.95 62.3601L349.57 62.2001C350.77 61.8901 351.58 61.5101 351.98 61.0501C352.25 60.7201 352.33 60.3301 352.21 59.8701C352.14 59.6001 352.02 59.3301 351.86 59.0601C351.79 58.9301 351.42 58.4201 350.74 57.5201L348.1 54.0701ZM346.89 52.5801L339.54 43.0801L337.51 54.9701L346.89 52.5801Z" fill="#CBC8D0"/>
<path d="M12.35 170.85L0 215.62L15.14 226.41L49.19 234.71L62.68 184.16L12.35 170.85Z" fill="#F5F5F5"/>
<path d="M6.58 213.61L0 215.61C0 215.61 2.07 219.54 5.32 221.81C8.56 224.08 11.74 225.58 15.14 226.41C15.14 226.41 7.86 222.18 6.58 213.61Z" fill="#EBEBEB"/>
<path d="M52.85 198.66C52.83 198.74 44.24 196.55 33.68 193.76C23.11 190.97 14.56 188.64 14.58 188.56C14.6 188.48 23.19 190.67 33.76 193.46C44.32 196.25 52.87 198.58 52.85 198.66Z" fill="#E0E0E0"/>
<path d="M50.86 205.52C50.84 205.6 42.25 203.41 31.69 200.62C21.12 197.83 12.57 195.5 12.59 195.42C12.61 195.34 21.2 197.53 31.77 200.32C42.33 203.1 50.88 205.43 50.86 205.52Z" fill="#E0E0E0"/>
<path d="M49.46 211.69C49.44 211.77 40.85 209.58 30.29 206.79C19.72 204 11.17 201.67 11.19 201.59C11.21 201.51 19.8 203.7 30.37 206.49C40.93 209.28 49.48 211.61 49.46 211.69Z" fill="#E0E0E0"/>
<path d="M47.86 217.57C47.84 217.65 39.25 215.46 28.69 212.67C18.12 209.88 9.57 207.55 9.59 207.47C9.61 207.39 18.2 209.58 28.77 212.37C39.33 215.16 47.88 217.49 47.86 217.57Z" fill="#E0E0E0"/>
<path d="M377.99 307.03C377.99 304.26 380.24 302.01 383.01 302.01C385.78 302.01 388.03 304.26 388.03 307.03C388.03 309.8 385.78 312.05 383.01 312.05C380.24 312.05 377.99 309.8 377.99 307.03Z" fill="#E0E0E0"/>
<path d="M396.31 283.41C398.039 283.41 399.44 282.009 399.44 280.28C399.44 278.551 398.039 277.15 396.31 277.15C394.581 277.15 393.18 278.551 393.18 280.28C393.18 282.009 394.581 283.41 396.31 283.41Z" fill="#E0E0E0"/>
<path d="M379.78 258.14C379.27 256.64 380.08 255.01 381.58 254.51C383.08 254 384.71 254.81 385.21 256.31C385.72 257.81 384.91 259.44 383.41 259.94C381.91 260.45 380.29 259.64 379.78 258.14Z" fill="#E0E0E0"/>
<path d="M362.49 362.78C365.069 362.78 367.16 360.689 367.16 358.11C367.16 355.531 365.069 353.44 362.49 353.44C359.911 353.44 357.82 355.531 357.82 358.11C357.82 360.689 359.911 362.78 362.49 362.78Z" fill="#E0E0E0"/>
<path d="M363.61 397.96C365.46 397.96 366.96 396.46 366.96 394.61C366.96 392.76 365.46 391.26 363.61 391.26C361.76 391.26 360.26 392.76 360.26 394.61C360.26 396.46 361.76 397.96 363.61 397.96Z" fill="#E0E0E0"/>
<path d="M362.31 433.07C362.31 434.38 361.24 435.45 359.93 435.45C358.62 435.45 357.55 434.38 357.55 433.07C357.55 431.76 358.62 430.69 359.93 430.69C361.24 430.69 362.31 431.76 362.31 433.07Z" fill="#E0E0E0"/>
<path d="M376.39 362.78C378.969 362.78 381.06 360.689 381.06 358.11C381.06 355.531 378.969 353.44 376.39 353.44C373.811 353.44 371.72 355.531 371.72 358.11C371.72 360.689 373.811 362.78 376.39 362.78Z" fill="#E0E0E0"/>
<path d="M396.46 391.26C396.46 393.11 394.96 394.61 393.11 394.61C391.26 394.61 389.76 393.11 389.76 391.26C389.76 389.41 391.26 387.91 393.11 387.91C394.96 387.91 396.46 389.41 396.46 391.26Z" fill="#E0E0E0"/>
<path d="M383.32 428.47C383.03 429.75 381.75 430.55 380.47 430.26C379.19 429.97 378.39 428.69 378.68 427.41C378.97 426.13 380.25 425.33 381.53 425.62C382.81 425.91 383.61 427.19 383.32 428.47Z" fill="#E0E0E0"/>
<path d="M375.43 330.33C375.43 334.6 371.97 338.06 367.7 338.06C363.43 338.06 359.97 334.6 359.97 330.33C359.97 326.06 363.43 322.6 367.7 322.6C371.97 322.61 375.43 326.07 375.43 330.33Z" fill="#E0E0E0"/>
<path d="M372.78 297.39C372.78 300.16 370.53 302.41 367.76 302.41C364.99 302.41 362.74 300.16 362.74 297.39C362.74 294.62 364.99 292.37 367.76 292.37C370.53 292.37 372.78 294.62 372.78 297.39Z" fill="#E0E0E0"/>
<path d="M355.9 307.03C355.9 309.8 353.65 312.05 350.88 312.05C348.11 312.05 345.86 309.8 345.86 307.03C345.86 304.26 348.11 302.01 350.88 302.01C353.65 302 355.9 304.25 355.9 307.03Z" fill="#E0E0E0"/>
<path d="M340.71 333.78C340.71 335.51 339.31 336.91 337.58 336.91C335.85 336.91 334.45 335.51 334.45 333.78C334.45 332.05 335.85 330.65 337.58 330.65C339.31 330.65 340.71 332.05 340.71 333.78Z" fill="#E0E0E0"/>
<path d="M354.11 355.91C354.62 357.41 353.81 359.04 352.31 359.54C350.81 360.05 349.18 359.24 348.68 357.74C348.17 356.24 348.98 354.61 350.48 354.11C351.98 353.61 353.6 354.41 354.11 355.91Z" fill="#E0E0E0"/>
<path d="M399.1 283.72C399.1 283.72 391.09 301.76 387.84 305.63C387.84 305.63 384.11 304.31 381.96 302.11C381.96 302.11 391.54 283.79 393.19 280.69L399.1 283.72Z" fill="#F5F5F5"/>
<path d="M398.46 276.5C398.34 276.12 385.79 257.11 385.79 257.11L380.28 260.9L392.28 280.69L398.46 276.5Z" fill="#F5F5F5"/>
<path d="M385.31 255.9C385.31 255.9 393.43 246.76 387.75 243.64C382.07 240.52 380.55 251.28 381.06 254.38L385.55 256.07" fill="#F5F5F5"/>
<path d="M389.79 449.77H350.27C350.27 442.86 355.87 437.26 362.78 437.26H377.28C384.19 437.26 389.79 442.86 389.79 449.77Z" fill="#E0E0E0"/>
<path d="M368.39 336.17C368.51 336.17 368.61 358.89 368.61 386.9C368.61 414.93 368.51 437.64 368.39 437.64C368.27 437.64 368.17 414.93 368.17 386.9C368.17 358.88 368.26 336.17 368.39 336.17Z" fill="#E0E0E0"/>
<path d="M359.45 332.96C359.45 332.96 354.82 340.46 356.1 355.31H380.37C380.37 355.31 381.87 337.66 376.13 332.55L359.45 332.96Z" fill="#F5F5F5"/>
<path d="M357.08 362.02H368.21L367.16 393.42H359.54L357.08 362.02Z" fill="#F5F5F5"/>
<path d="M359.38 395.58L357.08 431.61L362.64 432.67L367.62 396.63L359.38 395.58Z" fill="#F5F5F5"/>
<path d="M354.65 437.26C354.65 437.26 354.72 432.83 359.2 432.67C363.68 432.5 364.18 437.26 364.18 437.26H354.65Z" fill="#F5F5F5"/>
<path d="M373.31 363.24L383.43 358.61L395.55 387.59L388.62 390.76L373.31 363.24Z" fill="#F5F5F5"/>
<path d="M388.81 391.26L378.54 425.88L383.74 428.15L396.61 394.12L388.81 391.26Z" fill="#F5F5F5"/>
<path d="M376.1 431.21C376.39 431.69 389.79 436.71 389.79 436.71C389.79 436.71 392.97 433.88 382.94 429.31L380.8 428.32C379.1 427.54 377.1 428.38 376.48 430.14L376.1 431.21Z" fill="#F5F5F5"/>
<path d="M355.33 300.18C354.96 300.27 355.64 320.03 359.98 327.37C359.98 327.37 375.57 326.86 375.95 327.37C376.33 327.88 381.37 310.17 380.92 300.65C380.91 300.65 369.96 296.73 355.33 300.18Z" fill="#F5F5F5"/>
<path d="M365.62 269.48C365.62 269.48 355.67 269.7 357.5 282.36C359.34 295.02 361.38 295.02 361.44 295.34C361.5 295.66 373.94 294.47 373.94 294.47C373.94 294.47 380.77 268.94 365.62 269.48Z" fill="#F5F5F5"/>
<path d="M334.79 330.33C334.79 330.33 342.8 312.29 346.05 308.42C346.05 308.42 349.78 309.74 351.93 311.94C351.93 311.94 342.35 330.26 340.7 333.36L334.79 330.33Z" fill="#F5F5F5"/>
<path d="M335.43 337.55C335.55 337.93 348.1 356.94 348.1 356.94L353.61 353.15L341.61 333.36L335.43 337.55Z" fill="#F5F5F5"/>
<path d="M348.32 358.78C348.32 358.78 340.2 367.92 345.88 371.04C351.56 374.16 353.08 363.4 352.57 360.3L348.08 358.61" fill="#F5F5F5"/>
<path d="M332.39 155.79C333.33 147.48 327.35 140.08 321.29 134.31C315.24 128.54 308.35 122.66 306.58 114.49C305.23 108.23 307.17 101.8 308.05 95.46C308.93 89.12 308.34 81.76 303.38 77.7C294.66 70.56 279.64 77.83 270.8 70.86C261.39 63.44 269.83 46.69 259.23 41.09C249.01 35.68 240.49 51.59 234.32 38.25C226.04 20.33 209.92 30.33 209.92 30.33C203.59 34.91 200.27 46.73 192.69 48.66C181.48 51.51 169.69 37.85 159.47 43.26C148.88 48.86 154.22 67.4 144.81 74.82C135.96 81.8 121.08 73.5 112.36 80.64C107.4 84.7 106.81 92.06 107.69 98.4C108.57 104.74 110.52 111.17 109.16 117.43C107.39 125.6 100.51 131.48 94.45 137.25C88.39 143.02 82.42 150.42 83.35 158.73C84.38 167.87 93.36 174.22 95.75 183.09C99.32 196.32 87.36 210.55 92.21 223.36C98.32 239.48 123.91 237.71 133.79 251.84C137.51 257.16 138.36 263.95 141.21 269.79C147.46 282.57 162.72 288.91 176.95 288.71C188.96 288.54 200.49 284.6 211.7 280.11C220.48 283.26 229.47 285.65 238.75 285.77C252.98 285.97 268.24 279.63 274.49 266.85C277.34 261.02 278.19 254.23 281.91 248.9C291.78 234.77 317.38 236.54 323.49 220.42C328.34 207.61 316.38 193.37 319.95 180.15C322.38 171.28 331.36 164.93 332.39 155.79Z" fill="#CBC8D0"/>
<path d="M251.63 66.34L261.14 110.56L301.19 85.44L295.05 51.98C294.84 50.86 293.69 50.18 292.61 50.55L252.84 64.18C251.96 64.49 251.43 65.41 251.63 66.34Z" fill="#455A64"/>
<path d="M301.85 124.46L261.15 110.56L301.19 85.28L329.57 90.12L301.85 124.46Z" fill="#455A64"/>
<path d="M263.3 107.76L299.76 84.88L293.35 52.8L254.87 66.71L263.3 107.76Z" fill="#263238"/>
<path d="M266.22 110.35C268.13 109.09 281.52 100.24 302 86.7101L302.03 86.6901L302.07 86.7001C307.08 87.7001 312.49 88.7801 318.1 89.9001L318.3 89.9401L318.15 90.0801C317.66 90.5401 317.14 91.0301 316.61 91.5301C306.34 101.16 296.88 110.03 289.44 117.02L289.41 117.05L289.36 117.04C275.59 113.06 267.79 110.81 266.22 110.35C267.79 110.79 275.61 112.99 289.41 116.87L289.33 116.89C296.77 109.9 306.22 101.01 316.47 91.3701C317 90.8701 317.52 90.3801 318.01 89.9201L318.06 90.1001C312.45 88.9801 307.04 87.8901 302.04 86.8901L302.11 86.8801C281.57 100.32 268.14 109.1 266.22 110.35Z" fill="#263238"/>
<path d="M311.39 97.67C311.39 97.67 311.61 97.7 312.03 97.78C312.52 97.88 313.13 98 313.86 98.14C315.54 98.48 317.79 98.95 320.48 99.5L320.62 99.53L320.53 99.64C318.37 102.2 315.8 105.24 313.02 108.53L312.98 108.58L312.92 108.56C312.75 108.51 312.57 108.46 312.39 108.41C308.96 107.43 305.73 106.51 302.91 105.7L302.75 105.65L302.87 105.54C305.36 103.22 307.47 101.26 309.04 99.81C309.74 99.17 310.32 98.63 310.78 98.21C311.17 97.85 311.39 97.67 311.39 97.67C311.39 97.67 311.18 97.89 310.78 98.27C310.33 98.7 309.76 99.25 309.07 99.91C307.53 101.37 305.45 103.34 302.99 105.67L302.95 105.51C305.77 106.31 309.01 107.23 312.44 108.2C312.62 108.25 312.8 108.3 312.97 108.35L312.86 108.38C315.65 105.1 318.23 102.07 320.4 99.52L320.45 99.66C317.78 99.08 315.54 98.59 313.87 98.23C313.14 98.07 312.53 97.93 312.04 97.82C311.62 97.74 311.39 97.67 311.39 97.67Z" fill="#263238"/>
<path d="M314.94 98.24C314.98 98.28 313.27 100.2 311.13 102.54C308.98 104.87 307.2 106.74 307.16 106.7C307.12 106.66 308.83 104.74 310.98 102.4C313.12 100.06 314.9 98.2 314.94 98.24Z" fill="#263238"/>
<path d="M276.66 94.67C276.66 94.67 276.68 94.55 276.74 94.32C276.82 94.03 276.91 93.7 277.02 93.32C277.3 92.36 277.66 91.12 278.08 89.64C279.02 86.45 280.27 82.21 281.65 77.53C284.23 68.87 286 62.95 286.75 60.42C286.75 60.42 286.73 60.54 286.68 60.78C286.63 61.02 286.54 61.35 286.42 61.79C286.15 62.76 285.8 63.99 285.39 65.48C284.45 68.68 283.21 72.91 281.84 77.6C280.44 82.27 279.17 86.5 278.21 89.69C277.76 91.16 277.38 92.39 277.08 93.35C276.96 93.73 276.85 94.06 276.76 94.34C276.71 94.55 276.66 94.67 276.66 94.67Z" fill="white"/>
<path d="M275.29 88.4601C275.23 88.4401 276.42 84.0801 277.95 78.7001C279.47 73.3301 280.75 68.9801 280.81 69.0001C280.87 69.0201 279.68 73.3801 278.15 78.7601C276.63 84.1301 275.35 88.4701 275.29 88.4601Z" fill="white"/>
<path d="M368.96 139.14L322.41 145.88L319.31 158.19L313.25 161.9L325.26 180.76L331.33 176.77L344.17 178.46L368.96 139.14Z" fill="#FAFAFA"/>
<path d="M368.96 139.14C368.27 140.24 358.8 155.37 344.29 178.54L344.24 178.62L344.15 178.61C340.07 178.08 335.76 177.52 331.3 176.94L331.4 176.92C329.48 178.18 327.42 179.54 325.34 180.91L325.21 181L325.12 180.87C323.15 177.78 321.09 174.54 318.99 171.24C316.99 168.1 315.03 165.02 313.11 162L313.02 161.86L313.16 161.78C315.21 160.53 317.24 159.29 319.22 158.08L319.15 158.18C320.23 153.92 321.26 149.81 322.26 145.87L322.28 145.77L322.38 145.76C349.66 141.87 367.67 139.32 368.96 139.14C367.67 139.33 349.67 142 322.43 146.03L322.55 145.92C321.56 149.86 320.53 153.97 319.46 158.23L319.44 158.29L319.39 158.32C317.41 159.53 315.39 160.77 313.33 162.03L313.38 161.81C315.3 164.83 317.26 167.91 319.26 171.04C321.36 174.34 323.42 177.58 325.39 180.67L325.17 180.62C327.26 179.25 329.32 177.9 331.24 176.64L331.29 176.61L331.35 176.62C335.81 177.21 340.11 177.77 344.19 178.31L344.05 178.38C358.7 155.3 368.26 140.24 368.96 139.14Z" fill="#263238"/>
<path d="M343.99 164.46C340.85 166.52 336.66 165.61 334.63 162.42C332.6 159.23 333.5 154.97 336.64 152.91C339.78 150.85 343.97 151.76 346 154.95C348.03 158.14 347.13 162.4 343.99 164.46Z" fill="#263238"/>
<path d="M368.96 139.14C369.01 139.21 362.64 143.65 354.73 149.05C346.82 154.45 340.37 158.76 340.32 158.69C340.27 158.62 346.64 154.18 354.56 148.78C362.46 143.38 368.91 139.07 368.96 139.14Z" fill="#263238"/>
<path d="M201.41 249.59C198.19 244.53 199.59 237.77 204.56 234.46L307.04 166.26L318.76 184.67L216.38 252.8C211.37 256.14 204.66 254.69 201.41 249.59Z" fill="#26016D"/>
<path d="M319.88 186.45L306.1 164.79L313.5 159.93L327.28 181.58L319.88 186.45Z" fill="#1D0054"/>
<path d="M367.92 142.58L365.25 138.66L369.11 135.94L371.78 139.86L367.92 142.58Z" fill="#2E0079"/>
<path d="M390.87 170.89C390.67 171.03 380.37 156.28 367.87 137.94C355.36 119.6 345.39 104.62 345.59 104.48C345.79 104.34 356.08 119.09 368.59 137.43C381.09 155.77 391.07 170.75 390.87 170.89Z" fill="#2E0079"/>
<path d="M391.38 171.63C390.75 172.08 389.88 171.92 389.44 171.27C389 170.63 389.16 169.75 389.79 169.3C390.42 168.85 391.29 169.01 391.73 169.66C392.17 170.31 392.01 171.19 391.38 171.63Z" fill="#2E0079"/>
<path d="M346.38 105.65C345.75 106.09 344.88 105.93 344.44 105.29C344 104.65 344.16 103.77 344.79 103.32C345.42 102.87 346.29 103.03 346.73 103.68C347.17 104.32 347.01 105.2 346.38 105.65Z" fill="#2E0079"/>
<path opacity="0.3" d="M307.03 166.27L318.75 184.68L316.01 186.5L306.06 166.92L307.03 166.27Z" fill="black"/>
<path opacity="0.5" d="M317.28 165.86L314.24 177.14L315.86 180.13L318.98 168.54L317.28 165.86Z" fill="white"/>
<path d="M53.33 134.75L71.1 167.74L147.19 227.89L164.72 203.58L90.02 144.95L53.33 134.75Z" fill="#2E0079"/>
<g opacity="0.7">
<path d="M90.02 144.95C89.92 146.44 88.73 147.57 87.3 147.17C89 149.35 89.13 152.63 87.6 154.94C86.08 157.25 83.01 158.42 80.33 157.71C81.12 160.33 80.39 163.35 78.5 165.33C76.61 167.31 73.62 168.16 70.96 167.49L53.32 134.75L90.02 144.95Z" fill="white"/>
</g>
<path d="M60.48 148.02C60.48 148.02 67.59 149.02 68.37 138.93L53.34 134.75L60.48 148.02Z" fill="#2E0079"/>
<path opacity="0.3" d="M80.34 157.72L155.24 216.01L147.19 227.89L71.1 167.74L70.97 167.49C70.97 167.49 72.51 167.97 74.39 167.58C75.65 167.32 77.14 166.68 78.35 165.49C79.91 163.97 80.53 162.12 80.65 160.61C80.78 158.97 80.34 157.72 80.34 157.72Z" fill="black"/>
<path opacity="0.3" d="M87.3 147.17L162.47 206.7L164.72 203.58L90.02 144.95C90.02 144.95 89.96 147.12 87.84 147.26C87.68 147.27 87.5 147.2 87.3 147.17Z" fill="black"/>
<path d="M72.21 156.28C72.22 156.26 72.28 156.44 72.56 156.5C72.81 156.56 73.32 156.45 73.49 155.93C73.66 155.44 73.59 154.75 73.35 154.05C73.22 153.7 73 153.35 72.65 153.12C72.31 152.88 71.84 152.77 71.42 152.95C71 153.13 70.71 153.57 70.55 154.05C70.39 154.53 70.34 155.08 70.32 155.63C70.3 156.74 70.44 157.96 70.92 159.11C71.17 159.67 71.58 160.22 72.18 160.4C72.78 160.59 73.48 160.37 73.97 159.94C74.97 159.03 75.26 157.5 75.26 156.09C75.22 153.2 73.47 150.54 71.2 149.52C70.63 149.29 69.99 149.32 69.49 149.61C68.98 149.89 68.61 150.35 68.3 150.81C67.71 151.76 67.34 152.75 67.1 153.67C66.62 155.52 66.72 157.1 66.87 158.15C66.96 158.68 67.05 159.08 67.12 159.36C67.19 159.63 67.22 159.78 67.22 159.78C67.22 159.78 66.98 159.23 66.79 158.17C66.61 157.12 66.5 155.52 66.96 153.64C67.19 152.7 67.56 151.7 68.16 150.73C68.47 150.25 68.86 149.77 69.4 149.46C69.94 149.13 70.66 149.1 71.26 149.35C73.63 150.4 75.41 153.12 75.46 156.1C75.47 156.84 75.37 157.57 75.17 158.27C74.97 158.96 74.64 159.63 74.09 160.11C73.55 160.57 72.79 160.82 72.11 160.6C71.42 160.39 70.99 159.78 70.73 159.2C70.24 158 70.1 156.77 70.13 155.64C70.15 155.07 70.2 154.52 70.38 154.01C70.55 153.51 70.86 153.03 71.34 152.83C71.82 152.62 72.35 152.77 72.7 153.02C73.07 153.28 73.3 153.66 73.43 154.02C73.67 154.75 73.72 155.45 73.54 155.97C73.34 156.53 72.79 156.63 72.53 156.55C72.25 156.46 72.21 156.27 72.21 156.28Z" fill="white"/>
<path d="M74.77 141.04C74.79 141.05 74.62 141.44 74.5 142.19C74.37 142.94 74.37 144.06 74.7 145.38C75.01 146.71 75.68 148.2 76.51 149.8C77.31 151.41 78.27 153.22 78.56 155.33C78.84 157.43 78.42 159.48 77.62 161.12C76.82 162.77 75.62 163.98 74.51 164.78C73.38 165.58 72.33 165.99 71.6 166.21C70.86 166.43 70.44 166.46 70.44 166.46C70.44 166.45 70.54 166.42 70.74 166.38C70.94 166.33 71.22 166.26 71.58 166.13C72.3 165.89 73.33 165.46 74.43 164.65C75.52 163.84 76.68 162.65 77.45 161.03C78.23 159.42 78.64 157.41 78.36 155.35C78.08 153.29 77.13 151.5 76.35 149.88C75.53 148.27 74.87 146.75 74.57 145.4C74.26 144.06 74.28 142.91 74.44 142.16C74.57 141.42 74.77 141.04 74.77 141.04Z" fill="white"/>
<path d="M83.24 142.93C83.29 142.96 82.34 143.31 81.92 144.68C81.51 146 81.51 147.98 81.62 150.1C81.75 152.23 82.12 154.14 82.47 155.5C82.64 156.18 82.8 156.72 82.91 157.1C83.02 157.48 83.08 157.69 83.07 157.69C83.06 157.69 82.97 157.49 82.83 157.13C82.7 156.76 82.51 156.22 82.33 155.54C81.95 154.19 81.55 152.27 81.42 150.12C81.35 149.05 81.35 148.02 81.4 147.09C81.44 146.16 81.55 145.31 81.79 144.64C82.02 143.96 82.41 143.5 82.72 143.25C83.03 143 83.24 142.93 83.24 142.93Z" fill="white"/>
<path d="M86.83 155.86C86.81 155.87 86.57 155.46 86.26 154.76C85.96 154.06 85.57 153.04 85.61 151.84C85.63 150.64 86.24 149.62 86.87 149.17C87.18 148.93 87.48 148.81 87.69 148.75C87.9 148.69 88.02 148.69 88.02 148.7C88.03 148.74 87.54 148.8 86.97 149.28C86.39 149.74 85.84 150.7 85.82 151.85C85.78 152.99 86.14 154 86.4 154.7C86.67 155.41 86.86 155.85 86.83 155.86Z" fill="white"/>
<path d="M69.87 139.28C69.88 139.28 69.91 139.33 69.95 139.44C70 139.55 70.07 139.7 70.15 139.91C70.23 140.12 70.33 140.38 70.33 140.71C70.34 141.04 70.22 141.4 70.05 141.76C69.72 142.49 69.16 143.27 68.63 144.16C68.1 145.06 67.6 146.09 67.17 147.22C66.31 149.47 65.87 151.63 65.54 153.17C65.4 153.84 65.28 154.45 65.16 155.01C65.07 155.44 65.01 155.68 65 155.68C64.99 155.68 65.02 155.43 65.08 155C65.15 154.56 65.25 153.93 65.39 153.15C65.68 151.59 66.11 149.43 66.97 147.15C67.4 146.01 67.91 144.97 68.46 144.07C69.01 143.17 69.57 142.41 69.91 141.7C70.31 141 70.23 140.35 70.07 139.94C69.94 139.51 69.85 139.28 69.87 139.28Z" fill="white"/>
<path d="M234.26 53.02C234.41 38.53 222.79 26.67 208.31 26.52C193.82 26.37 181.96 37.99 181.81 52.47C181.7 62.96 187.76 72.07 196.62 76.36C196.59 79.47 196.55 82.98 196.55 82.98L219.54 83.22C219.54 83.22 219.72 79.51 219.8 76.19C228.28 71.92 234.15 63.18 234.26 53.02Z" fill="#2E0079"/>
<path d="M211.21 83.02C211.21 83.02 211.21 82.91 211.24 82.7C211.27 82.47 211.31 82.16 211.36 81.76C211.47 80.93 211.63 79.71 211.88 78.14C212.13 76.57 212.46 74.65 212.98 72.45C213.51 70.26 214.24 67.77 215.44 65.18C216.04 63.89 216.74 62.56 217.64 61.28C218.1 60.65 218.68 60.04 219.45 59.69C220.22 59.33 221.17 59.34 221.94 59.8C222.32 60.03 222.64 60.4 222.76 60.85C222.89 61.29 222.84 61.79 222.64 62.2C222.23 63.03 221.45 63.6 220.6 63.92C218.86 64.51 216.87 64.33 215.15 63.48C213.43 62.62 212.06 60.99 211.49 59.07C211.22 58.11 211.07 57.06 211.37 56.04C211.63 55.03 212.63 54.13 213.77 54.24C214.34 54.29 214.85 54.68 215.1 55.18C215.36 55.68 215.42 56.26 215.29 56.8C215.03 57.89 214.23 58.7 213.42 59.39C211.75 60.74 209.49 61.47 207.29 61.1C205.1 60.73 203.14 59.25 202.26 57.27C201.79 56.29 201.69 55.11 202.12 54.09C202.33 53.59 202.74 53.12 203.28 52.94C203.82 52.74 204.42 52.84 204.89 53.11C205.37 53.37 205.76 53.79 205.98 54.27C206.22 54.75 206.33 55.27 206.36 55.79C206.42 56.82 206.27 57.84 205.93 58.78C205.27 60.68 203.9 62.27 202.19 63.14C200.49 64.03 198.52 64.24 196.75 63.83C195.88 63.63 194.99 63.27 194.4 62.55C193.83 61.85 193.67 60.75 194.28 60.02C194.58 59.67 195.03 59.48 195.46 59.46C195.9 59.43 196.33 59.53 196.71 59.72C197.48 60.11 197.95 60.84 198.3 61.54C198.94 62.97 199.46 64.36 199.98 65.68C202.02 70.99 203.47 75.36 204.43 78.39C204.91 79.9 205.27 81.09 205.51 81.89C205.62 82.28 205.71 82.59 205.77 82.8C205.83 83.01 205.85 83.11 205.85 83.11C205.85 83.11 205.81 83.01 205.74 82.8C205.67 82.58 205.57 82.28 205.45 81.89C205.19 81.08 204.81 79.91 204.32 78.41C203.32 75.39 201.84 71.04 199.78 65.75C199.25 64.43 198.72 63.03 198.09 61.63C197.76 60.95 197.3 60.28 196.61 59.94C195.94 59.6 195 59.6 194.49 60.19C193.99 60.78 194.11 61.76 194.62 62.37C195.14 63.01 195.98 63.35 196.82 63.55C198.52 63.94 200.42 63.73 202.05 62.87C203.69 62.03 205.01 60.5 205.64 58.67C205.96 57.76 206.11 56.78 206.05 55.8C205.99 54.84 205.6 53.83 204.73 53.38C204.31 53.15 203.81 53.07 203.37 53.24C202.92 53.39 202.59 53.77 202.39 54.22C202.01 55.13 202.09 56.22 202.53 57.14C203.37 59.02 205.24 60.43 207.32 60.79C209.42 61.15 211.59 60.44 213.2 59.15C213.98 58.49 214.73 57.71 214.96 56.74C215.07 56.27 215.01 55.76 214.8 55.34C214.59 54.92 214.18 54.61 213.72 54.57C213.26 54.52 212.78 54.69 212.41 54.98C212.04 55.27 211.79 55.69 211.65 56.15C211.38 57.07 211.51 58.08 211.77 59C212.31 60.85 213.62 62.42 215.27 63.24C216.91 64.07 218.85 64.23 220.48 63.68C221.28 63.38 222.01 62.83 222.38 62.1C222.77 61.38 222.48 60.44 221.79 60.05C221.12 59.65 220.24 59.63 219.55 59.95C218.84 60.27 218.29 60.85 217.83 61.46C216.94 62.71 216.24 64.03 215.64 65.31C214.44 67.87 213.7 70.35 213.15 72.53C212.61 74.72 212.26 76.63 212 78.2C211.75 79.76 211.56 80.97 211.42 81.81C211.36 82.21 211.31 82.53 211.27 82.75C211.24 82.91 211.21 83.02 211.21 83.02Z" fill="#FCFCFC"/>
<path d="M217.71 87.45L197.97 87.24C197.15 87.23 196.5 86.56 196.5 85.74C196.51 84.92 197.18 84.27 198 84.27L217.74 84.48C218.56 84.49 219.21 85.16 219.21 85.98C219.2 86.81 218.53 87.46 217.71 87.45Z" fill="#263238"/>
<path d="M217.7 88.75L197.96 88.54C197.14 88.53 196.47 89.19 196.46 90.01C196.45 90.83 197.11 91.5 197.93 91.51L200.1 91.53L202.92 97.03C203.24 97.66 203.89 98.06 204.59 98.07L211.64 98.14C212.35 98.15 213.01 97.75 213.34 97.12L216.19 91.7L217.66 91.72C218.48 91.73 219.15 91.07 219.16 90.25C219.17 89.43 218.52 88.76 217.7 88.75Z" fill="#263238"/>
<g opacity="0.2">
<path d="M191.35 35.86C193.13 34.25 194.99 33.13 196.64 32.42C198.29 31.71 199.7 31.38 200.69 31.29C201.68 31.2 202.25 31.3 202.29 31.51C202.4 31.99 200.4 32.67 197.71 34.43C195.02 36.15 191.65 39.18 189.58 43.49C187.53 47.81 187.3 52.34 187.65 55.51C187.98 58.72 188.7 60.7 188.26 60.91C188.07 61.01 187.63 60.63 187.08 59.8C186.52 58.97 185.9 57.66 185.41 55.94C184.92 54.22 184.62 52.06 184.75 49.67C184.88 47.28 185.47 44.64 186.66 42.11" fill="white"/>
</g>
<g opacity="0.2">
<path d="M208.6 32.7C206.94 32.67 205.48 32.2 205.31 31.32C205.24 30.88 205.55 30.42 206.16 30.06C206.76 29.7 207.65 29.46 208.65 29.48C209.64 29.5 210.53 29.76 211.12 30.14C211.71 30.52 212.01 30.99 211.93 31.42" fill="white"/>
</g>
<path d="M212.97 97.5799C212.95 97.6299 212.45 97.3999 211.62 97.1499C210.79 96.8999 209.6 96.6699 208.28 96.6899C206.96 96.7199 205.78 96.9899 204.95 97.2699C204.13 97.5499 203.64 97.7999 203.62 97.7499C203.6 97.7199 204.05 97.3999 204.88 97.0599C205.7 96.7199 206.91 96.3999 208.28 96.3699C209.65 96.3499 210.87 96.6199 211.7 96.9299C212.53 97.2499 212.99 97.5499 212.97 97.5799Z" fill="#455A64"/>
<path d="M216.24 91.76C216.24 91.85 212.67 91.8799 208.27 91.8399C203.87 91.7899 200.3 91.6799 200.3 91.5999C200.3 91.5099 203.87 91.4799 208.27 91.5199C212.67 91.5599 216.24 91.67 216.24 91.76Z" fill="#455A64"/>
<path d="M214.98 94.09C214.98 94.13 214.24 94.2 213.03 94.27C211.83 94.33 210.16 94.38 208.32 94.39C206.48 94.4 204.81 94.36 203.61 94.3C202.41 94.25 201.66 94.18 201.66 94.14C201.66 94.09 202.41 94.08 203.61 94.08C204.91 94.08 206.53 94.08 208.31 94.07C210.1 94.06 211.71 94.05 213.01 94.04C214.23 94.04 214.97 94.05 214.98 94.09Z" fill="#455A64"/>
<path d="M177.77 33.4499C177.71 33.5799 174.77 32.3299 171.2 30.6699C167.63 28.9999 164.79 27.5499 164.85 27.4099C164.91 27.2799 167.85 28.5299 171.42 30.1899C174.99 31.8599 177.83 33.3199 177.77 33.4499Z" fill="#263238"/>
<path d="M191.77 21.2499C191.71 21.2899 190.91 20.2299 189.69 18.4599C188.47 16.6899 186.82 14.2199 185.09 11.4299C183.35 8.64992 181.85 6.07992 180.8 4.20992C179.75 2.32992 179.15 1.14992 179.21 1.10992C179.27 1.06992 179.99 2.18992 181.12 4.01992C182.33 5.96992 183.85 8.42992 185.54 11.1599C187.25 13.8699 188.79 16.3199 190.01 18.2599C191.14 20.0699 191.83 21.2099 191.77 21.2499Z" fill="#263238"/>
<path d="M207.2 3.42993C207.34 3.42993 207.57 6.76993 207.7 10.9099C207.83 15.0499 207.82 18.3999 207.68 18.4099C207.54 18.4099 207.31 15.0699 207.18 10.9299C207.05 6.78993 207.06 3.42993 207.2 3.42993Z" fill="#263238"/>
<path d="M233.69 -2.75002e-05C233.82 0.0599725 231.75 4.73997 229.06 10.44C226.37 16.15 224.09 20.72 223.96 20.66C223.83 20.6 225.9 15.92 228.59 10.22C231.27 4.51997 233.56 -0.0600275 233.69 -2.75002e-05Z" fill="#263238"/>
<path d="M244.91 21.25C245 21.36 242.63 23.4 239.61 25.79C236.59 28.19 234.08 30.04 233.99 29.93C233.9 29.82 236.27 27.78 239.29 25.39C242.3 22.99 244.82 21.14 244.91 21.25Z" fill="#263238"/>
<path d="M302.15 226.02L305.47 243.66L308.2 238.74L314.07 247.53L317 245.55L311.14 236.76L316.52 235.93L302.15 226.02Z" fill="#263238"/>
<path d="M246 235.21C252.9 231.82 257.1 224.58 259.5 217.28C261.9 209.98 262.91 202.26 265.6 195.06C267.6 189.69 265.08 181.26 269.78 177.99C275.67 173.9 275.36 163.4 272.94 158.21C270.3 152.56 263.39 148.47 262.89 146.67C261.57 141.95 265.58 136.72 263.94 132.1C260.09 121.24 251.21 122.89 251.21 122.89C247.04 118.06 241.4 111.69 232.43 109.58C222.71 107.3 208.43 105.77 199.95 111.02C191.47 116.28 185.23 119.8 182.66 129.45" fill="#263238"/>
<path d="M253.31 168.3C251.21 143.91 230.73 125.22 206.25 125.35L203.82 125.36C177.6 127.03 164.38 150.24 166.78 176.4L167.99 308.05L233.35 307.94L231.69 257.51C231.69 257.51 256.88 253.45 257.06 228.24C257.13 216.06 255.26 190.98 253.31 168.3Z" fill="#FFBE9D"/>
<path d="M242.12 187.24C242.2 189.14 240.65 190.77 238.67 190.89C236.69 191.01 235.02 189.57 234.94 187.66C234.86 185.76 236.41 184.12 238.39 184.01C240.37 183.9 242.04 185.34 242.12 187.24Z" fill="#263238"/>
<path d="M248.32 179.33C247.88 179.8 245.14 177.8 241.26 177.83C237.39 177.81 234.56 179.81 234.14 179.34C233.93 179.13 234.38 178.28 235.62 177.37C236.83 176.47 238.91 175.58 241.32 175.58C243.73 175.58 245.77 176.46 246.94 177.36C248.13 178.27 248.54 179.12 248.32 179.33Z" fill="#263238"/>
<path d="M205.78 187.24C205.86 189.14 204.31 190.77 202.33 190.89C200.35 191.01 198.68 189.57 198.6 187.66C198.52 185.76 200.07 184.12 202.05 184.01C204.03 183.9 205.7 185.34 205.78 187.24Z" fill="#263238"/>
<path d="M209.71 178.45C209.32 178.97 206.38 177.27 202.53 177.72C198.68 178.12 196.08 180.42 195.61 179.99C195.38 179.8 195.73 178.91 196.86 177.88C197.97 176.85 199.93 175.75 202.33 175.48C204.73 175.22 206.85 175.87 208.11 176.64C209.41 177.42 209.91 178.21 209.71 178.45Z" fill="#263238"/>
<path d="M224.09 210.24C224.07 210.02 226.48 209.59 230.38 209.07C231.37 208.96 232.3 208.76 232.47 208.08C232.7 207.36 232.28 206.3 231.79 205.15C230.85 202.76 229.86 200.26 228.82 197.63C224.7 186.93 221.71 178.13 222.14 177.96C222.57 177.8 226.26 186.34 230.38 197.04C231.37 199.68 232.32 202.2 233.22 204.6C233.6 205.72 234.25 206.99 233.75 208.48C233.49 209.22 232.76 209.76 232.13 209.94C231.5 210.14 230.94 210.15 230.45 210.18C226.55 210.43 224.11 210.46 224.09 210.24Z" fill="#263238"/>
<path d="M209.52 162.71C209.08 163.74 205.24 163.01 200.68 163.29C196.1 163.47 192.37 164.59 191.82 163.61C191.58 163.14 192.28 162.19 193.82 161.26C195.35 160.33 197.74 159.5 200.49 159.36C203.23 159.23 205.7 159.81 207.31 160.58C208.92 161.35 209.71 162.23 209.52 162.71Z" fill="#263238"/>
<path d="M246.47 169.45C245.79 170.33 243.12 169.43 239.91 169.41C236.7 169.27 233.99 170.03 233.36 169.12C233.08 168.68 233.51 167.79 234.69 166.95C235.86 166.11 237.81 165.42 240.01 165.48C242.21 165.54 244.13 166.32 245.25 167.22C246.39 168.12 246.77 169.02 246.47 169.45Z" fill="#263238"/>
<path d="M184.5 127.61C184.6 133.19 187.3 138.67 191.67 142.16C196.03 145.65 201.97 147.07 207.44 145.94C211.68 145.06 216.3 142.81 220.04 144.99C223.97 147.29 224.27 153.13 227.77 156.04C232.78 160.2 240.51 156.02 246.79 157.73C251.64 159.05 254.76 163.59 258.05 167.39C261.34 171.19 266.22 174.77 271.01 173.23C270.6 168.9 270.19 164.53 268.81 160.41C267.43 156.29 264.96 152.39 261.27 150.1C259.25 148.85 256.91 148.11 255.02 146.65C250.95 143.51 249.89 137.91 247.32 133.46C244 127.72 237.76 123.78 231.15 123.25C225.65 122.81 220.03 124.59 214.66 123.36C210.68 122.45 207.17 119.96 203.15 119.29C195.32 117.98 188.19 123.74 182.66 129.45" fill="#263238"/>
<path d="M209.71 138.14C206.19 137.22 198.99 135.11 197.04 132.13C192.82 125.63 185.54 121.3 178.21 121.87C170.88 122.44 163.97 128.39 162.64 136.17C153.76 136.44 145.23 142.21 141.16 150.7C137.09 159.19 137.65 170.05 142.57 178.03C143.86 180.12 145.48 182.2 145.57 184.71C145.68 187.81 143.44 190.32 141.88 192.93C137.62 200.03 138.17 209.64 141.76 217.18C145.35 224.73 147.81 227.35 152.71 228.77C162.29 231.54 153.27 250.89 169.1 250.54L171.01 193.76C171.41 193.97 171.9 194.15 172.51 194.27C181.93 196.18 182.75 177.85 180.54 172.66C183.86 169.57 187.22 166.44 189.72 162.56C192.22 158.68 194.26 148.2 193.6 143.52C196.98 143.62 211.26 138.55 209.71 138.14Z" fill="#263238"/>
<path d="M172.33 194.08C171.9 193.9 154.98 189.05 155.63 206.28C156.27 223.51 173.44 219.31 173.45 218.81C173.46 218.32 172.33 194.08 172.33 194.08Z" fill="#FFBE9D"/>
<path d="M167.94 212.48C167.86 212.43 167.65 212.7 167.15 212.95C166.66 213.19 165.82 213.38 164.91 213.08C163.06 212.48 161.42 209.65 161.22 206.54C161.12 204.97 161.39 203.47 161.9 202.21C162.38 200.93 163.16 200.02 164.07 199.82C164.97 199.58 165.64 200.1 165.87 200.58C166.12 201.05 166.02 201.4 166.12 201.43C166.17 201.47 166.48 201.13 166.31 200.42C166.23 200.08 166.01 199.68 165.59 199.37C165.16 199.05 164.55 198.9 163.91 198.99C162.58 199.13 161.43 200.4 160.87 201.78C160.24 203.17 159.89 204.86 160.01 206.62C160.25 210.09 162.15 213.27 164.67 213.9C165.89 214.17 166.89 213.77 167.4 213.34C167.93 212.9 168 212.51 167.94 212.48Z" fill="#EB996E"/>
<path d="M144.36 222.21C146.52 224.43 147.64 227.62 147.34 230.7C147.04 233.78 145.33 236.7 142.78 238.46C144.21 239.7 146.17 240.32 148.05 240.13C148.77 242.29 145.75 243.84 145.18 246.04C144.84 247.36 145.47 248.79 146.47 249.72C147.47 250.65 148.77 251.18 150.06 251.61C153.91 252.91 157.96 253.59 162.02 253.62C164.39 253.64 167.04 253.3 168.53 251.46C169.77 249.93 169.84 247.79 169.85 245.83C169.88 240.93 169.92 236.03 169.95 231.12C169.96 229.67 169.94 228.12 169.09 226.95C168.13 225.61 166.37 225.15 164.77 224.77C157.77 223.15 150.76 221.53 143.76 219.91" fill="#263238"/>
<path d="M231.68 257.51C231.68 257.51 208.65 254.51 195.04 244.6C195.04 244.6 202.57 265.47 231.83 265.4L231.68 257.51Z" fill="#EB996E"/>
<path d="M211.06 212.13C211.69 212.05 211.99 216.25 215.8 218.99C219.6 221.73 224.05 220.95 224.13 221.53C224.21 221.79 223.19 222.42 221.3 222.6C219.45 222.79 216.7 222.39 214.37 220.72C212.05 219.04 210.93 216.67 210.67 214.95C210.37 213.2 210.77 212.13 211.06 212.13Z" fill="#263238"/>
<path d="M148.49 185.48C148.48 185.49 148.28 185.35 147.9 185.05C147.57 184.71 147.04 184.21 146.62 183.39C145.75 181.81 145.25 178.94 146.5 175.86C147.12 174.33 148.23 172.87 149.63 171.56C151.04 170.25 152.75 169.11 154.61 168.05C156.47 166.99 158.49 166.01 160.47 164.84C162.45 163.67 164.42 162.29 165.96 160.41C167.51 158.54 168.52 156.35 169.36 154.21C170.2 152.06 170.87 149.92 171.68 147.93C172.49 145.95 173.42 144.11 174.59 142.57C175.75 141.04 177.13 139.82 178.61 139.08C181.61 137.64 184.52 138.01 186.12 138.84C186.96 139.23 187.47 139.75 187.81 140.08C188.11 140.45 188.26 140.65 188.25 140.66C188.19 140.73 187.67 139.78 186.04 139.02C184.46 138.28 181.64 137.98 178.78 139.41C177.38 140.13 176.06 141.33 174.94 142.82C173.82 144.32 172.92 146.13 172.13 148.1C171.34 150.07 170.68 152.21 169.84 154.38C168.99 156.55 167.97 158.79 166.36 160.73C164.76 162.67 162.73 164.09 160.72 165.26C158.71 166.44 156.68 167.41 154.83 168.45C152.98 169.49 151.29 170.59 149.91 171.86C148.54 173.12 147.44 174.53 146.83 175.99C145.59 178.94 146 181.72 146.8 183.28C147.61 184.91 148.55 185.43 148.49 185.48Z" fill="#455A64"/>
<path d="M256.23 179.83C256.22 179.82 256.29 179.74 256.44 179.58C256.6 179.4 256.81 179.18 257.08 178.89C257.61 178.26 258.43 177.35 259.29 176.04C260.16 174.74 261.12 173.07 261.91 171C262.71 168.93 263.36 166.46 263.54 163.68C263.75 160.9 263.42 157.81 262.42 154.69C261.42 151.57 259.73 148.43 257.29 145.68C256.08 144.29 254.64 143.07 253.1 141.9C251.57 140.71 249.95 139.52 248.57 137.99C247.15 136.48 246.24 134.52 245.51 132.58C244.75 130.64 244.08 128.61 242.79 126.96C242.14 126.15 241.33 125.48 240.4 125.06C239.48 124.63 238.46 124.44 237.45 124.43C235.41 124.41 233.43 125.03 231.59 125.8C229.76 126.59 228.01 127.57 226.19 128.31C224.39 129.06 222.48 129.62 220.56 129.55C218.63 129.52 216.88 128.73 215.33 127.91C213.77 127.08 212.3 126.21 210.75 125.72C207.64 124.73 204.45 124.95 201.85 125.86C199.21 126.76 197.18 128.39 195.8 130.11C194.42 131.84 193.63 133.62 193.2 135.11C192.76 136.61 192.65 137.83 192.63 138.65C192.6 139.47 192.64 139.91 192.61 139.91C192.61 139.91 192.53 139.48 192.52 138.65C192.51 137.82 192.59 136.58 193 135.06C193.41 133.54 194.18 131.72 195.57 129.93C196.95 128.16 199.02 126.46 201.72 125.52C204.39 124.56 207.66 124.31 210.88 125.31C212.49 125.81 213.99 126.69 215.54 127.5C217.08 128.31 218.75 129.05 220.57 129.07C222.38 129.13 224.22 128.59 225.99 127.85C227.78 127.11 229.5 126.14 231.38 125.33C233.25 124.54 235.29 123.89 237.45 123.91C238.52 123.92 239.62 124.13 240.62 124.59C241.62 125.05 242.5 125.77 243.19 126.63C244.57 128.38 245.24 130.46 245.99 132.39C246.72 134.34 247.58 136.19 248.94 137.65C250.28 139.13 251.87 140.31 253.4 141.51C254.94 142.69 256.42 143.95 257.65 145.37C260.14 148.18 261.84 151.4 262.84 154.57C263.83 157.75 264.14 160.9 263.91 163.72C263.7 166.55 263.02 169.04 262.18 171.12C261.36 173.21 260.35 174.88 259.45 176.17C257.63 178.74 256.23 179.83 256.23 179.83Z" fill="#455A64"/>
<path d="M66.53 366.48C66.53 366.48 94.06 286.37 99.03 282.65C115.17 270.55 167.16 261.2 167.16 261.2C167.16 261.2 180.22 295.7 204.26 295.45C228.49 295.2 236.27 269.29 236.27 269.29C236.27 269.29 270.67 267.88 284.66 274.58C290.25 277.26 327.19 350.16 327.19 350.16L286.74 366.41L298.04 448.98L94.89 449.06L96.82 367.19L66.53 366.48Z" fill="#0E0028"/>
<path d="M115.25 304.64C115.15 304.74 111.68 301.54 107.49 297.48C103.3 293.42 99.99 290.05 100.09 289.94C100.19 289.84 103.66 293.04 107.85 297.1C112.04 301.16 115.35 304.53 115.25 304.64Z" fill="#263238"/>
<path d="M172.18 271.97C172.22 272.12 170.96 272.53 169.55 273.31C168.14 274.08 167.13 274.94 167.02 274.83C166.92 274.74 167.81 273.67 169.3 272.86C170.78 272.03 172.15 271.83 172.18 271.97Z" fill="#263238"/>
<path d="M174.95 286.23C174.82 286.22 174.98 284.85 176.04 283.61C177.09 282.35 178.41 281.96 178.44 282.09C178.51 282.23 177.39 282.79 176.43 283.94C175.47 285.07 175.09 286.27 174.95 286.23Z" fill="#263238"/>
<path d="M181.85 293.14C181.73 293.07 182.25 291.99 183.01 290.74C183.77 289.49 184.49 288.54 184.61 288.61C184.73 288.68 184.21 289.76 183.45 291.01C182.69 292.26 181.97 293.21 181.85 293.14Z" fill="#263238"/>
<path d="M194.74 298.73C194.6 298.71 194.64 297.68 194.83 296.43C195.02 295.18 195.29 294.19 195.43 294.21C195.57 294.23 195.53 295.26 195.34 296.51C195.15 297.75 194.88 298.75 194.74 298.73Z" fill="#263238"/>
<path d="M206.51 300.81C206.36 300.81 206.27 299.43 205.84 297.79C205.42 296.15 204.82 294.9 204.95 294.83C205.06 294.76 205.9 295.94 206.34 297.66C206.8 299.37 206.65 300.82 206.51 300.81Z" fill="#263238"/>
<path d="M219.74 298.73C219.59 298.75 219.34 297.22 218.77 295.41C218.21 293.6 217.53 292.21 217.66 292.13C217.77 292.06 218.68 293.38 219.27 295.25C219.86 297.12 219.88 298.72 219.74 298.73Z" fill="#263238"/>
<path d="M229.47 291.78C229.31 291.8 229.09 290.24 228.11 288.61C227.16 286.97 225.9 286.01 225.99 285.88C226.04 285.76 227.53 286.58 228.56 288.34C229.6 290.09 229.6 291.79 229.47 291.78Z" fill="#263238"/>
<path d="M148.83 279.24C148.83 279.23 148.9 279.31 149.05 279.48C149.22 279.69 149.42 279.94 149.68 280.25C150.27 280.98 151.07 281.99 152.08 283.25C154.2 285.93 157.16 289.68 160.71 294.16L160.82 294.3L160.71 294.44C157.22 298.78 153.12 303.89 148.74 309.34L148.54 309.59L148.34 309.34C148.31 309.3 148.27 309.26 148.24 309.22C143.92 303.82 139.86 298.76 136.41 294.44L136.29 294.3L136.41 294.16C140.12 289.68 143.22 285.93 145.44 283.26C146.5 282 147.34 280.99 147.96 280.26C148.23 279.95 148.45 279.69 148.62 279.49C148.75 279.31 148.83 279.23 148.83 279.24C148.83 279.25 148.75 279.36 148.6 279.55C148.43 279.77 148.21 280.05 147.95 280.39C147.35 281.15 146.52 282.2 145.48 283.51C143.34 286.19 140.33 289.95 136.74 294.44V294.16C140.21 298.46 144.28 303.51 148.63 308.9C148.66 308.94 148.7 308.98 148.73 309.02H148.32C152.72 303.58 156.85 298.49 160.35 294.17V294.45C156.92 289.95 154.06 286.2 152.01 283.51C151.02 282.2 150.23 281.15 149.66 280.39C149.41 280.05 149.2 279.77 149.04 279.55C148.9 279.36 148.83 279.25 148.83 279.24Z" fill="#FAFAFA"/>
<path d="M125.55 271.07C125.58 271.09 125.37 271.4 124.98 271.94C124.59 272.48 124 273.25 123.27 274.19C121.81 276.07 119.76 278.66 117.48 281.49C116.64 282.53 115.83 283.53 115.07 284.46L114.87 284.7L114.68 284.46C112.99 282.34 111.55 280.49 110.55 279.17C109.54 277.85 108.97 277.05 109.02 277.01C109.07 276.97 109.72 277.7 110.8 278.97C111.87 280.24 113.36 282.04 115.08 284.14H114.69C115.44 283.21 116.24 282.2 117.08 281.16C119.36 278.33 121.45 275.78 122.99 273.96C123.76 273.05 124.38 272.31 124.83 271.81C125.27 271.31 125.53 271.04 125.55 271.07Z" fill="#FAFAFA"/>
<path d="M75.42 340.54C75.44 340.53 75.64 340.75 76.01 341.19C76.42 341.69 76.94 342.32 77.58 343.11C78.96 344.84 80.85 347.21 83.09 350.04H82.74C85.1 347.09 87.89 343.62 90.87 339.9C92.2 338.25 93.5 336.65 94.72 335.14V335.45C91.41 331.13 88.53 327.37 86.42 324.61C85.44 323.3 84.64 322.22 84.03 321.42C83.48 320.67 83.19 320.25 83.22 320.23C83.24 320.21 83.58 320.59 84.17 321.31C84.8 322.09 85.64 323.14 86.67 324.41C88.82 327.14 91.75 330.87 95.12 335.14L95.24 335.3L95.11 335.46C93.9 336.97 92.6 338.57 91.27 340.23C88.27 343.93 85.46 347.39 83.08 350.32L82.9 350.54L82.73 350.32C80.54 347.45 78.71 345.04 77.36 343.28C76.76 342.47 76.27 341.8 75.89 341.29C75.58 340.8 75.41 340.55 75.42 340.54Z" fill="#FAFAFA"/>
<path d="M155.07 359.93C155.07 359.92 155.15 359.99 155.31 360.15C155.5 360.34 155.73 360.57 156.02 360.85C156.68 361.52 157.59 362.44 158.72 363.59C161.1 366.03 164.44 369.45 168.44 373.55L168.56 373.68L168.46 373.83C165.44 378.51 161.89 384.01 158.1 389.89L157.92 390.16L157.69 389.93C157.65 389.89 157.62 389.86 157.58 389.82C152.72 384.9 148.16 380.28 144.27 376.35L144.14 376.22L144.24 376.07C147.46 371.23 150.16 367.18 152.09 364.29C153.01 362.93 153.75 361.84 154.28 361.04C154.51 360.7 154.7 360.42 154.86 360.2C155 360.01 155.07 359.92 155.07 359.93C155.07 359.94 155.01 360.06 154.88 360.26C154.73 360.5 154.55 360.8 154.32 361.16C153.8 361.98 153.09 363.11 152.19 364.52C150.34 367.41 147.74 371.46 144.64 376.3L144.61 376.02C148.51 379.94 153.09 384.54 157.97 389.44C158.01 389.48 158.05 389.52 158.08 389.55L157.68 389.59C161.49 383.73 165.06 378.23 168.1 373.57L168.13 373.85C164.25 369.74 161.01 366.3 158.7 363.84C157.58 362.64 156.69 361.68 156.04 360.98C155.75 360.67 155.52 360.41 155.33 360.21C155.16 360.04 155.07 359.94 155.07 359.93Z" fill="#FAFAFA"/>
<path d="M121.87 354.82C121.89 354.8 122.16 355.02 122.64 355.46C123.17 355.96 123.85 356.6 124.68 357.37L124.45 357.4C126.35 354.35 129.53 349.35 133.17 343.73C133.71 342.9 134.24 342.08 134.75 341.29L134.78 341.61C131.44 338.11 128.5 335 126.41 332.76C125.42 331.68 124.6 330.79 123.97 330.1C123.4 329.47 123.11 329.11 123.13 329.09C123.15 329.07 123.5 329.38 124.1 329.97C124.76 330.63 125.62 331.49 126.65 332.52C128.8 334.7 131.79 337.76 135.14 341.25L135.28 341.4L135.17 341.57C134.66 342.35 134.13 343.17 133.59 344.01C129.95 349.63 126.7 354.58 124.69 357.56L124.58 357.72L124.45 357.59C123.67 356.77 123.02 356.1 122.51 355.58C122.08 355.1 121.85 354.84 121.87 354.82Z" fill="#FAFAFA"/>
<path d="M194.26 394.34C194.26 394.33 194.34 394.4 194.5 394.56C194.69 394.75 194.92 394.98 195.21 395.26C195.87 395.93 196.78 396.85 197.91 398C200.29 400.44 203.63 403.86 207.63 407.96L207.75 408.09L207.65 408.24C204.63 412.92 201.08 418.42 197.29 424.3L197.11 424.57L196.88 424.34C196.84 424.3 196.81 424.27 196.77 424.23C191.91 419.31 187.35 414.69 183.46 410.76L183.33 410.63L183.43 410.48C186.65 405.64 189.35 401.59 191.28 398.7C192.2 397.34 192.94 396.25 193.47 395.45C193.7 395.11 193.89 394.83 194.05 394.61C194.19 394.42 194.26 394.33 194.26 394.34C194.26 394.35 194.2 394.47 194.07 394.67C193.92 394.91 193.74 395.21 193.51 395.57C192.99 396.39 192.28 397.52 191.38 398.93C189.53 401.82 186.93 405.87 183.83 410.71L183.8 410.43C187.7 414.35 192.28 418.95 197.16 423.85C197.2 423.89 197.24 423.93 197.27 423.96L196.87 424C200.68 418.14 204.25 412.64 207.29 407.98L207.32 408.26C203.44 404.15 200.2 400.71 197.89 398.25C196.77 397.05 195.88 396.09 195.23 395.39C194.94 395.08 194.71 394.82 194.52 394.62C194.34 394.45 194.26 394.35 194.26 394.34Z" fill="#FAFAFA"/>
<path d="M239.49 349.13C239.49 349.12 239.57 349.19 239.73 349.35C239.92 349.54 240.15 349.77 240.44 350.05C241.1 350.72 242.01 351.64 243.14 352.79C245.52 355.23 248.86 358.65 252.86 362.75L252.98 362.88L252.88 363.03C249.86 367.71 246.31 373.21 242.52 379.09L242.34 379.36L242.11 379.13C242.07 379.09 242.04 379.06 242 379.02C237.14 374.1 232.58 369.48 228.69 365.55L228.56 365.42L228.66 365.27C231.88 360.43 234.58 356.38 236.51 353.49C237.43 352.13 238.17 351.04 238.7 350.24C238.93 349.9 239.12 349.62 239.28 349.4C239.42 349.21 239.49 349.12 239.49 349.13C239.49 349.14 239.43 349.26 239.3 349.46C239.15 349.7 238.97 350 238.74 350.36C238.22 351.18 237.51 352.31 236.61 353.72C234.76 356.61 232.16 360.66 229.06 365.5L229.03 365.22C232.93 369.14 237.51 373.74 242.39 378.64C242.43 378.68 242.47 378.72 242.5 378.75L242.1 378.79C245.91 372.93 249.48 367.43 252.52 362.77L252.55 363.05C248.67 358.94 245.43 355.5 243.12 353.04C242 351.84 241.11 350.88 240.46 350.18C240.17 349.87 239.94 349.61 239.75 349.41C239.58 349.24 239.49 349.14 239.49 349.13Z" fill="#FAFAFA"/>
<path d="M278.61 284.79C278.61 284.78 278.69 284.85 278.85 285.01C279.04 285.2 279.27 285.43 279.56 285.71C280.22 286.38 281.13 287.3 282.26 288.45C284.64 290.89 287.98 294.31 291.98 298.41L292.1 298.54L292 298.69C288.98 303.37 285.43 308.87 281.64 314.75L281.46 315.02L281.23 314.79C281.19 314.75 281.16 314.72 281.12 314.68C276.26 309.76 271.7 305.14 267.81 301.21L267.68 301.08L267.78 300.93C271 296.09 273.7 292.04 275.63 289.15C276.55 287.79 277.29 286.7 277.82 285.9C278.05 285.56 278.24 285.28 278.4 285.06C278.54 284.87 278.61 284.78 278.61 284.79C278.61 284.8 278.55 284.92 278.42 285.12C278.27 285.36 278.09 285.66 277.86 286.02C277.34 286.84 276.63 287.97 275.73 289.38C273.88 292.27 271.28 296.32 268.18 301.16L268.15 300.88C272.05 304.8 276.63 309.4 281.51 314.3C281.55 314.34 281.59 314.38 281.62 314.41L281.22 314.45C285.03 308.59 288.6 303.09 291.64 298.43L291.67 298.71C287.79 294.6 284.55 291.16 282.24 288.7C281.12 287.5 280.23 286.54 279.58 285.84C279.29 285.53 279.06 285.27 278.87 285.07C278.69 284.9 278.61 284.8 278.61 284.79Z" fill="#FAFAFA"/>
<path d="M324.37 344.66C324.39 344.67 324.23 344.93 323.91 345.39C323.55 345.91 323.08 346.56 322.52 347.36C321.24 349.11 319.51 351.48 317.46 354.29L317.34 354.46L317.16 354.35C314.4 352.62 311.19 350.61 307.78 348.47C306.77 347.83 305.77 347.2 304.82 346.6L304.6 346.46L304.74 346.24C307.75 341.69 310.42 337.67 312.38 334.7C313.32 333.31 314.1 332.18 314.69 331.31C315.24 330.52 315.55 330.1 315.58 330.12C315.61 330.14 315.35 330.59 314.84 331.41C314.29 332.29 313.55 333.46 312.66 334.88C310.73 337.87 308.12 341.93 305.16 346.51L305.08 346.15C306.03 346.75 307.03 347.37 308.04 348.01C311.44 350.17 314.64 352.2 317.39 353.94L317.09 354C319.21 351.24 320.99 348.9 322.3 347.19C322.91 346.42 323.4 345.79 323.79 345.3C324.16 344.87 324.35 344.65 324.37 344.66Z" fill="#FAFAFA"/>
<path d="M200.23 309.92C200.23 309.91 200.31 309.98 200.47 310.14C200.66 310.33 200.89 310.56 201.18 310.84C201.84 311.51 202.75 312.43 203.88 313.58C206.26 316.02 209.6 319.44 213.6 323.54L213.72 323.67L213.62 323.82C210.6 328.5 207.05 334 203.26 339.88L203.08 340.15L202.85 339.92C202.81 339.88 202.78 339.85 202.74 339.81C197.88 334.89 193.32 330.27 189.43 326.34L189.3 326.21L189.4 326.06C192.62 321.22 195.32 317.17 197.25 314.28C198.17 312.92 198.91 311.83 199.44 311.03C199.67 310.69 199.86 310.41 200.02 310.19C200.16 309.99 200.23 309.9 200.23 309.92C200.23 309.93 200.17 310.05 200.04 310.25C199.89 310.49 199.71 310.79 199.48 311.15C198.96 311.97 198.25 313.1 197.35 314.51C195.5 317.4 192.9 321.45 189.8 326.29L189.77 326.01C193.67 329.93 198.25 334.53 203.13 339.43C203.17 339.47 203.21 339.51 203.24 339.54L202.84 339.58C206.65 333.72 210.22 328.22 213.26 323.56L213.29 323.84C209.41 319.73 206.17 316.29 203.86 313.83C202.74 312.63 201.85 311.67 201.2 310.97C200.91 310.66 200.68 310.4 200.49 310.2C200.31 310.02 200.23 309.93 200.23 309.92Z" fill="#FAFAFA"/>
<g opacity="0.3">
<path d="M123.28 330.47C121.35 354.1 119.78 377.19 117.34 400.84L118.68 401.06C126.22 378.62 125.46 354.05 123.28 330.47Z" fill="black"/>
</g>
<path d="M123.59 321.64C123.73 321.65 123.08 333.9 122.13 349.01C121.18 364.12 120.3 376.36 120.15 376.35C120 376.34 120.66 364.09 121.61 348.98C122.56 333.87 123.45 321.63 123.59 321.64Z" fill="#263238"/>
<g opacity="0.3">
<path d="M262.25 372.55C256.88 346.91 249.45 321.75 242.02 296.63C240.87 292.76 239.7 288.82 237.48 285.45C235.26 282.08 231.8 279.29 227.79 278.87L228.09 284.04C235.08 306.06 237.01 329.32 241.44 351.99C245.87 374.66 253.32 397.67 269.14 414.51C267.45 400.43 265.16 386.43 262.25 372.55Z" fill="black"/>
</g>
<path d="M275.45 411.71C270.73 411.71 243.03 421.79 243.03 421.79C243.03 421.79 152.71 406.61 117.32 400.8L120.46 367.87L74.35 366.67L64.95 405.83L64.82 406.35C61.98 417.28 63.23 428.95 68.7 438.82C71.8 444.42 76.82 450.22 81.9 450.22C109.09 450.22 251.64 450.32 251.64 450.32L274.42 449.99C279.14 446.32 275.99 448.94 280.19 449.47C284.38 449.99 298.02 448.95 298.02 448.95C298.02 448.95 305.88 448.43 308.51 444.23C311.13 440.04 314.8 429.55 314.8 427.98C314.77 426.39 280.17 411.71 275.45 411.71Z" fill="#FFBE9D"/>
<path d="M292.78 434.4C292.79 434.43 292.52 434.61 292 434.92C291.48 435.23 290.73 435.66 289.79 436.18C287.91 437.23 285.31 438.65 282.42 440.19C280.98 440.98 279.56 441.64 278.45 442.48C277.34 443.31 276.61 444.38 276.48 445.42C276.31 446.45 276.6 447.3 276.92 447.77C277.26 448.24 277.57 448.4 277.54 448.44C277.53 448.45 277.46 448.42 277.31 448.34C277.17 448.26 276.98 448.11 276.78 447.87C276.38 447.4 276.02 446.49 276.16 445.37C276.23 444.82 276.41 444.21 276.78 443.66C277.13 443.11 277.62 442.6 278.19 442.15C279.34 441.25 280.77 440.58 282.2 439.79C285.09 438.25 287.72 436.87 289.63 435.9C290.59 435.41 291.37 435.02 291.91 434.77C292.46 434.5 292.77 434.37 292.78 434.4Z" fill="#EB996E"/>
<path d="M298.82 437.43C298.82 437.48 298.4 437.58 297.7 437.54C297 437.5 296.04 437.28 295.09 436.76C294.15 436.24 293.44 435.55 293.03 434.98C292.62 434.41 292.47 434 292.52 433.98C292.63 433.9 293.51 435.4 295.31 436.36C297.09 437.36 298.83 437.29 298.82 437.43Z" fill="#EB996E"/>
<path d="M117.94 400.77C117.95 400.87 115.97 401.07 112.87 401.88C111.32 402.27 109.51 402.88 107.56 403.67C105.62 404.49 103.53 405.52 101.46 406.8C99.4 408.1 97.55 409.51 95.95 410.88C94.37 412.28 93.03 413.63 91.99 414.85C89.89 417.26 88.84 418.95 88.75 418.9C88.72 418.88 88.97 418.45 89.45 417.69C89.69 417.31 89.99 416.84 90.38 416.34C90.76 415.83 91.18 415.23 91.71 414.62C92.72 413.36 94.05 411.97 95.63 410.53C97.23 409.12 99.09 407.68 101.19 406.36C103.29 405.07 105.41 404.04 107.39 403.23C109.38 402.45 111.22 401.88 112.8 401.53C113.58 401.32 114.3 401.22 114.93 401.1C115.56 400.98 116.11 400.91 116.56 400.87C117.44 400.77 117.93 400.73 117.94 400.77Z" fill="#EB996E"/>
<path d="M248.05 248.23C248.05 248.23 240.3 245.24 241.4 241.33C242.5 237.42 245.46 234.86 245.46 234.86C245.46 234.86 251.26 227.33 253.27 227.08C255.28 226.84 257.48 229.4 257.48 229.4C257.48 229.4 261.3 226.41 263.98 227.86C266.66 229.31 271.94 233.31 271.94 233.31C271.94 233.31 279.11 233.47 280.15 235.54C281.19 237.62 285.05 248.01 285.05 248.01C285.05 248.01 284.6 255.3 281.97 257.13C279.88 258.58 263.04 273.25 263.04 273.25C263.04 273.25 288.14 327.13 296.84 343.84C303.53 356.68 329.58 396.22 329.88 402.63C330.18 409.04 333.08 418.04 328.28 423.26C323.49 428.48 323.27 441.63 312.34 443.58C301.41 445.53 301.45 446.98 294.88 442.23C288.31 437.48 266.32 424.46 258.5 381.15C250.68 337.84 231.96 285.71 231.96 285.71C231.96 285.71 224.76 275.57 224.88 273.99C225 272.4 224.4 264.77 230.29 260.84C236.2 256.89 248.05 248.23 248.05 248.23Z" fill="#FFBE9D"/>
<path d="M267.55 252.55C267.53 252.52 267.9 252.28 268.52 251.79C269.13 251.29 269.97 250.5 270.84 249.39C271.72 248.29 272.63 246.86 273.59 245.25C274.07 244.44 274.59 243.6 274.98 242.68C275.37 241.76 275.64 240.74 275.47 239.71C275.32 238.68 274.77 237.77 274.15 236.99C273.52 236.21 272.8 235.54 272.12 234.89C270.76 233.59 269.55 232.4 268.5 231.45C267.45 230.5 266.56 229.77 265.94 229.28C265.32 228.78 264.97 228.51 264.99 228.49C265 228.47 265.38 228.7 266.04 229.15C266.69 229.61 267.62 230.3 268.7 231.23C269.78 232.16 271.01 233.33 272.39 234.61C273.08 235.25 273.81 235.92 274.47 236.73C275.12 237.53 275.71 238.51 275.89 239.64C276.07 240.77 275.78 241.89 275.36 242.83C274.94 243.79 274.41 244.63 273.92 245.43C272.94 247.04 272 248.46 271.08 249.56C270.16 250.66 269.28 251.43 268.63 251.9C268.3 252.13 268.04 252.3 267.85 252.4C267.66 252.52 267.56 252.57 267.55 252.55Z" fill="#EB996E"/>
<path d="M280.16 235.55C280.15 235.56 280.06 235.38 279.8 235.12C279.53 234.86 279.04 234.58 278.35 234.33C276.97 233.84 274.79 233.48 271.95 233.39H271.93L271.91 233.38C270.26 232.15 268.29 230.71 265.95 229.18C264.78 228.48 263.55 227.41 261.98 227.6C260.45 227.74 258.93 228.51 257.56 229.5L257.47 229.56L257.4 229.48C256.65 228.66 255.74 227.87 254.65 227.43C254.12 227.23 253.48 227.09 252.96 227.32C252.43 227.57 251.93 227.96 251.46 228.37C249.57 230.06 247.85 232.13 246.1 234.3C245.21 235.38 244.41 236.55 243.72 237.84C243.05 239.12 242.43 240.5 242.1 241.94C242.08 242.12 242.02 242.3 242.04 242.48L242.09 243.02C242.19 243.37 242.3 243.72 242.5 244.04C242.88 244.68 243.4 245.26 244 245.74C245.2 246.72 246.62 247.49 248.11 248.08L248.39 248.19L248.15 248.37C245.19 250.54 242.09 252.78 238.87 255.08C237.25 256.22 235.61 257.39 233.94 258.57C233.1 259.15 232.25 259.74 231.39 260.33C230.97 260.63 230.51 260.9 230.11 261.22L229.49 261.69C229.29 261.85 229.11 262.04 228.92 262.22C227.41 263.65 226.39 265.58 225.82 267.63C225.23 269.69 225.11 271.9 225.12 274.1C225.18 274.55 225.46 275.09 225.69 275.57C225.95 276.06 226.22 276.55 226.5 277.03C227.07 277.99 227.67 278.95 228.28 279.9C229.51 281.8 230.81 283.7 232.14 285.59L232.16 285.61L232.17 285.64C235.53 295.14 238.82 305.21 242.04 315.62C244.91 324.91 247.55 334.04 249.92 342.89C251.13 347.31 252.21 351.69 253.29 355.96C254.3 360.26 255.33 364.45 256.18 368.58C257.11 372.69 257.84 376.74 258.6 380.66C259 382.61 259.4 384.54 259.79 386.43C260 387.37 260.16 388.32 260.4 389.24C260.65 390.16 260.89 391.07 261.13 391.97C261.37 392.87 261.61 393.77 261.85 394.66C261.97 395.1 262.09 395.55 262.21 395.99C262.35 396.42 262.5 396.85 262.64 397.28C263.21 398.99 263.77 400.67 264.32 402.32C264.97 403.93 265.6 405.51 266.22 407.05C266.38 407.44 266.53 407.82 266.68 408.2C266.86 408.57 267.03 408.94 267.21 409.31C267.56 410.04 267.91 410.77 268.25 411.49C271.04 417.21 274.14 422.09 277.24 426.07C280.38 430.04 283.47 433.12 286.14 435.47C288.8 437.83 291.05 439.45 292.57 440.55C293.32 441.09 293.9 441.51 294.3 441.8C294.69 442.08 294.88 442.24 294.88 442.24C294.88 442.24 294.67 442.11 294.27 441.84C293.87 441.56 293.28 441.15 292.52 440.63C290.99 439.55 288.72 437.96 286.03 435.61C283.34 433.27 280.22 430.19 277.06 426.23C273.93 422.24 270.8 417.36 267.99 411.63C267.64 410.91 267.29 410.18 266.94 409.45C266.76 409.08 266.59 408.71 266.41 408.34C266.25 407.96 266.1 407.57 265.94 407.19C265.31 405.64 264.67 404.06 264.02 402.45C263.47 400.8 262.9 399.12 262.32 397.4C262.18 396.97 262.03 396.54 261.89 396.11C261.77 395.67 261.65 395.23 261.53 394.78C261.29 393.89 261.05 392.99 260.8 392.09C260.55 391.18 260.31 390.27 260.06 389.35C259.82 388.43 259.65 387.48 259.45 386.53C259.05 384.63 258.65 382.71 258.24 380.75C257.47 376.84 256.73 372.8 255.8 368.69C254.94 364.57 253.91 360.38 252.9 356.09C251.82 351.82 250.73 347.45 249.52 343.03C247.14 334.18 244.5 325.06 241.63 315.77C238.41 305.37 235.12 295.29 231.77 285.81L231.8 285.86C230.46 283.96 229.17 282.06 227.93 280.15C227.31 279.2 226.71 278.23 226.14 277.26C225.85 276.77 225.58 276.28 225.32 275.78C225.08 275.26 224.79 274.8 224.71 274.14C224.71 271.91 224.82 269.68 225.43 267.56C226.02 265.46 227.07 263.46 228.64 261.98C228.84 261.8 229.02 261.6 229.23 261.43L229.87 260.95C230.29 260.62 230.73 260.35 231.16 260.06C232.02 259.47 232.86 258.89 233.71 258.31C235.38 257.13 237.03 255.97 238.65 254.83C241.86 252.52 244.96 250.28 247.94 248.14L247.98 248.43C246.45 247.82 245.02 247.03 243.78 246.02C243.16 245.52 242.61 244.92 242.21 244.23C242 243.89 241.88 243.5 241.77 243.11L241.72 242.51C241.7 242.31 241.77 242.11 241.79 241.92C242.14 240.4 242.77 239.04 243.45 237.73C244.14 236.44 244.97 235.23 245.86 234.16C247.63 231.98 249.35 229.92 251.27 228.21C251.76 227.79 252.26 227.39 252.85 227.12C253.49 226.86 254.16 227.03 254.73 227.24C255.88 227.72 256.79 228.53 257.56 229.37L257.4 229.35C258.81 228.34 260.34 227.56 261.95 227.42C262.75 227.35 263.55 227.53 264.2 227.91C264.85 228.27 265.46 228.66 266.04 229.05C268.37 230.59 270.33 232.06 271.98 233.3L271.94 233.29C274.79 233.41 276.97 233.79 278.36 234.31C279.05 234.58 279.54 234.87 279.81 235.14C279.96 235.26 280.01 235.4 280.07 235.47C280.14 235.51 280.16 235.55 280.16 235.55Z" fill="#EB996E"/>
<path d="M255.23 243.08C255.25 243.09 255.23 243.29 255.13 243.63C255.03 243.98 254.83 244.47 254.49 245.02C253.83 246.12 252.44 247.47 250.47 247.97C248.5 248.46 246.64 247.92 245.53 247.27C244.97 246.94 244.56 246.61 244.31 246.35C244.06 246.09 243.94 245.93 243.96 245.91C244.01 245.85 244.55 246.45 245.67 247.01C246.76 247.57 248.53 248.02 250.37 247.57C252.21 247.1 253.55 245.87 254.24 244.86C254.97 243.84 255.15 243.06 255.23 243.08Z" fill="#EB996E"/>
<path d="M257.82 253.91C257.8 253.88 258.2 253.67 258.87 253.22C259.53 252.76 260.45 252.03 261.43 250.96C262.42 249.9 263.46 248.53 264.57 246.96C265.13 246.18 265.72 245.36 266.17 244.44C266.62 243.53 266.91 242.48 266.73 241.43C266.57 240.37 266.03 239.43 265.43 238.6C264.82 237.77 264.13 237.04 263.5 236.3C262.24 234.84 261.18 233.46 260.24 232.36C259.3 231.25 258.49 230.4 257.91 229.83C257.33 229.26 257 228.96 257.02 228.93C257.03 228.92 257.12 228.98 257.29 229.11C257.46 229.24 257.71 229.44 258.02 229.71C258.64 230.25 259.49 231.07 260.46 232.16C261.43 233.25 262.52 234.61 263.79 236.04C264.42 236.76 265.13 237.49 265.76 238.35C266.39 239.2 266.97 240.2 267.15 241.35C267.34 242.51 267.02 243.66 266.54 244.6C266.06 245.56 265.45 246.38 264.88 247.16C263.75 248.72 262.67 250.1 261.64 251.14C260.62 252.19 259.65 252.91 258.95 253.33C258.59 253.53 258.32 253.69 258.12 253.77C257.93 253.88 257.83 253.92 257.82 253.91Z" fill="#EB996E"/>
<path d="M402.96 450.27C402.96 450.41 314.87 450.53 206.22 450.53C97.54 450.53 9.46 450.41 9.46 450.27C9.46 450.13 97.53 450.01 206.22 450.01C314.87 450.01 402.96 450.12 402.96 450.27Z" fill="#E7EDF0"/>
</g>
<defs>
<clipPath id="clip0_14_1572">
<rect width="413.75" height="450.53" fill="white"/>
</clipPath>
</defs>
</svg>
